<svg width="138" height="60" viewBox="0 0 138 60" fill="none" xmlns="http://www.w3.org/2000/svg">
<g clip-path="url(#clip0_2099_884)">
<mask id="mask0_2099_884" style="mask-type:luminance" maskUnits="userSpaceOnUse" x="-1" y="17" width="139" height="43">
<path d="M138 17H-1V59.7692H138V17Z" fill="white"/>
</mask>
<g mask="url(#mask0_2099_884)">
<path d="M49.4798 33.1292H42.0881C38.6627 33.1292 37.0401 32.5855 37.0401 31.3169V25.5177C37.0401 24.4303 38.6627 23.7054 42.0881 23.7054H49.4798C52.9052 23.7054 54.5278 24.2491 54.5278 25.5177V31.3169C54.5278 32.5855 52.9052 33.1292 49.4798 33.1292ZM49.4798 35.8476C55.6095 35.8476 58.6744 34.2165 58.6744 31.1357V25.6989C58.6744 22.4369 55.6095 20.9871 49.4798 20.9871H42.0881C35.9584 20.9871 32.8936 22.6181 32.8936 25.6989V31.1357C32.8936 34.3978 35.9584 35.8476 42.0881 35.8476H49.4798Z" fill="#0A3C87"/>
</g>
<mask id="mask1_2099_884" style="mask-type:luminance" maskUnits="userSpaceOnUse" x="-1" y="17" width="139" height="43">
<path d="M138 17H-1V59.7692H138V17Z" fill="white"/>
</mask>
<g mask="url(#mask1_2099_884)">
<path d="M128.804 33.1292H121.412C117.987 33.1292 116.364 32.5855 116.364 31.3169V25.5177C116.364 24.4303 117.987 23.7054 121.412 23.7054H128.804C132.229 23.7054 133.852 24.2491 133.852 25.5177V31.3169C133.852 32.5855 132.229 33.1292 128.804 33.1292ZM128.804 35.8476C134.934 35.8476 137.999 34.2165 137.999 31.1357V25.6989C137.999 22.4369 134.934 20.9871 128.804 20.9871H121.412C115.283 20.9871 112.218 22.6181 112.218 25.6989V31.1357C112.218 34.3978 115.283 35.8476 121.412 35.8476H128.804Z" fill="#0A3C87"/>
</g>
<mask id="mask2_2099_884" style="mask-type:luminance" maskUnits="userSpaceOnUse" x="-1" y="17" width="139" height="43">
<path d="M138 17H-1V59.7692H138V17Z" fill="white"/>
</mask>
<g mask="url(#mask2_2099_884)">
<path d="M28.7471 31.1356V27.3299C28.7471 26.605 28.2062 26.2425 27.1245 26.2425H18.1102C17.2088 26.2425 16.668 26.9674 16.668 27.6923C16.668 28.4172 17.3891 29.1421 18.1102 29.1421H24.2399V31.1356C24.2399 31.6793 23.5188 32.4042 22.0765 32.5854C20.9948 32.9478 20.0934 32.9478 19.192 32.9478H9.27626C5.30999 32.9478 3.32685 32.2229 3.32685 30.9544V21.7119C3.32685 20.4433 5.67056 19.8996 10.358 19.8996H13.0623C14.144 19.8996 14.6848 19.3559 14.6848 18.4498C14.8651 17.5437 14.3243 17 13.2425 17H9.27626C6.93255 17 4.76913 17.1812 2.78599 17.9061C0.442283 18.631 -1 19.8996 -1 21.7119V31.1356C-1 32.9478 0.261998 34.2164 2.60571 34.9413C4.40856 35.485 6.57198 35.8475 9.27626 35.8475H19.192C21.5357 35.8475 23.6991 35.485 25.3217 34.9413C27.4851 34.0352 28.7471 32.7666 28.7471 31.1356Z" fill="#0A3C87"/>
</g>
<mask id="mask3_2099_884" style="mask-type:luminance" maskUnits="userSpaceOnUse" x="-1" y="17" width="139" height="43">
<path d="M138 17H-1V59.7692H138V17Z" fill="white"/>
</mask>
<g mask="url(#mask3_2099_884)">
<path d="M88.7812 24.4302C88.7812 25.8801 86.798 26.4237 83.0121 26.4237H67.5075V19.7184H83.0121C86.798 19.7184 88.7812 20.0808 88.7812 21.7119V24.4302ZM89.322 17.7249C87.5192 17.3625 85.536 17 83.0121 17H64.4427C63.7215 17 63.1807 17.5437 63.1807 18.2686V34.7601C63.1807 35.6662 63.7215 36.0287 64.8032 36.0287H66.0652C67.1469 36.0287 67.6878 35.6662 67.6878 34.7601V29.1421H83.1923C85.8966 29.1421 87.8798 28.7797 89.6826 28.236C92.0263 27.3299 93.2883 26.0613 93.2883 24.0678V21.1682C93.108 19.7184 91.846 18.631 89.322 17.7249Z" fill="#0A3C87"/>
</g>
<mask id="mask4_2099_884" style="mask-type:luminance" maskUnits="userSpaceOnUse" x="-1" y="17" width="139" height="43">
<path d="M138 17H-1V59.7692H138V17Z" fill="white"/>
</mask>
<g mask="url(#mask4_2099_884)">
<path d="M107.713 20.9871C103.927 20.9871 102.304 20.9871 99.9604 21.8932C97.7969 22.7993 96.8955 24.2491 96.8955 25.6989V34.7602C96.8955 35.4851 97.4364 36.0288 98.3378 36.0288H99.5998C100.501 36.0288 101.042 35.6663 101.042 34.7602V25.6989C101.042 24.4303 102.665 23.8867 105.91 23.8867H107.713C108.794 23.8867 109.335 23.343 109.335 22.4369C109.155 21.5307 108.614 20.9871 107.713 20.9871Z" fill="#0A3C87"/>
</g>
</g>
<defs>
<clipPath id="clip0_2099_884">
<rect width="138" height="60" fill="white"/>
</clipPath>
</defs>
</svg>
