<svg width="138" height="60" viewBox="0 0 138 60" fill="none" xmlns="http://www.w3.org/2000/svg">
<g clip-path="url(#clip0_2099_865)">
<path d="M116.107 41.1227C118.167 41.1227 119.626 40.7547 120.714 39.9623V36.3679C119.598 37.1321 118.253 37.6132 116.365 37.6132C113.189 37.6132 111.873 35.1793 111.873 31.3302C111.873 27.283 113.475 25.217 116.393 25.217C118.11 25.217 119.798 25.8113 120.685 26.3774V22.6415C119.741 22.1321 118.11 21.7642 115.878 21.7642C110.185 21.7642 107.238 25.8113 107.238 31.4717C107.267 37.6698 110.156 41.1227 116.107 41.1227ZM88.2695 39.4811V35.8868C86.8962 36.8208 84.5501 37.6415 82.4043 37.6415C79.1428 37.6415 77.9125 36.1132 77.7122 33H88.4697V30.6793C88.4697 24.1981 85.5801 21.7642 81.1455 21.7642C75.7095 21.7642 73.1346 25.8679 73.1346 31.5C73.1346 37.9811 76.3676 41.1227 82.0324 41.1227C84.8648 41.1227 86.9534 40.3585 88.2695 39.4811ZM47.4425 22.1038V29.4623H41.4915V22.1038H37.0283V40.7547H41.4915V32.9717H47.4425V40.7547H51.9057V22.1038H47.4425ZM72.0188 37.2453H70.0447V22.1038H57.0556V23.6887C57.0556 28.2453 56.7695 34.1321 55.1959 37.2453H53.7654V45H57.8853V40.7547H67.8703V45H71.9902V37.2453H72.0188ZM102.489 40.7547H107.553L100.4 30.7076L106.695 22.1038H102.203L95.9084 30.7076V22.1038H91.4452V40.7547H95.9084V31.5849L102.489 40.7547ZM81.031 25.217C83.234 25.217 83.9207 27.0283 83.9207 29.3774V29.7453H77.7122C77.8267 26.7736 78.9139 25.217 81.031 25.217ZM65.5815 37.2453H59.2872C60.5174 34.4434 60.8607 29.3491 60.8607 26.1227V25.5566H65.5815V37.2453Z" fill="#0A3C87"/>
<path d="M33.3093 40.7547H28.7602V18.4811H26.7289C23.0095 18.4811 21.064 20.3208 21.064 23.066C21.064 26.1792 22.4087 27.6226 25.1839 29.4623L27.4728 30.9906L20.8924 40.7547H16L21.9223 32.0377C18.5177 29.6321 16.6008 27.283 16.6008 23.3208C16.6008 18.3679 20.0913 15 26.7003 15H33.2807V40.7547H33.3093Z" fill="#0A3C87"/>
</g>
<defs>
<clipPath id="clip0_2099_865">
<rect width="105" height="30" fill="white" transform="translate(16 15)"/>
</clipPath>
</defs>
</svg>
