<svg width="138" height="60" viewBox="0 0 138 60" fill="none" xmlns="http://www.w3.org/2000/svg">
<path d="M78.2642 10C76.6279 15.7698 75.268 21.6289 73.583 27.383C72.7486 30.2391 71.2099 37.1429 68.918 38.8754C67.4822 39.9622 64.4914 40.3507 62.6981 40.461C56.0284 40.8705 45.7449 40.9282 39.1078 40.461C34.7625 40.1565 33.4838 38.8387 34.1774 34.6124C34.4862 32.7433 35.2664 30.1971 35.8082 28.3175C36.6263 25.5087 37.607 21.1144 40.354 19.5971C41.3455 19.0511 43.7186 18.4001 44.8076 18.4001H62.01L60.3954 23.792C59.6965 24.2382 52.3929 23.7237 50.7621 23.9075C50.1336 23.981 49.6893 24.0702 49.31 24.6005C48.8766 25.2042 46.9802 32.3286 46.899 33.3104C46.7798 34.7279 47.2999 34.8434 48.5894 34.9484C51.0438 35.1479 55.6492 35.1636 58.0927 34.9484C58.77 34.8906 59.4147 34.8224 59.989 34.4234L67.2926 10H78.2642Z" fill="#0A3C87"/>
<path d="M89.913 18.4001C87.6645 25.8185 86.44 34.3341 83.5414 41.4952C80.1117 49.9741 75.5281 50.6409 66.7616 50.9611C63.2019 51.0924 59.6098 50.8404 56.0501 50.9454L57.9952 43.779C58.4286 42.9653 61.9233 43.4115 62.969 43.3485C64.9141 43.233 67.3955 43.044 69.1564 42.2565C72.0226 40.9702 73.22 37.7834 74.206 35.0744C76.1782 29.6668 77.2022 23.9127 78.806 18.4001H89.913Z" fill="#0A3C87"/>
<path d="M104 18.4001L98.0401 40.4505H86.9331L93.0284 18.4001H104Z" fill="#0A3C87"/>
</svg>
