<svg width="70" height="70" viewBox="0 0 70 70" fill="none" xmlns="http://www.w3.org/2000/svg">
<path d="M44.5658 44.4999C48.1304 42.2308 52.601 42.815 55.1946 45.9577C57.6666 48.9489 57.626 53.4899 54.9134 56.3891C52.2007 59.2884 47.7815 59.7644 44.5414 57.4628C41.2257 55.1072 40.1736 50.6041 42.3724 46.8853L40.8173 45.2897C37.4501 48.3323 32.8091 48.2241 29.4663 45.2734L27.9166 46.8231C30.0315 50.3796 29.2229 54.6934 26.1586 57.1626C23.0132 59.6995 18.4507 59.4317 15.6244 56.6244C12.7982 53.8171 12.5737 49.2004 14.9807 46.1551C17.5609 42.8907 22.0802 42.1226 25.6745 44.4972L27.5352 42.6635C27.3026 41.7197 26.9213 40.6703 26.9186 39.767L26.8888 30.5228C26.8861 29.3382 27.1863 28.1969 27.5569 27.015L25.7502 25.1192C22.3073 27.4369 17.8854 26.8663 15.2106 23.7939C12.6197 20.8162 12.69 16.2185 15.3512 13.3219C18.0125 10.4253 22.6346 9.85739 25.8909 12.2888C29.1471 14.7202 30.1451 19.0556 27.9301 22.7229L29.4609 24.3808C32.7902 21.4031 37.5015 21.3382 40.8092 24.3754L42.4129 22.8581C40.2899 19.3071 41.0634 14.8121 44.3359 12.3375C47.6084 9.8628 52.1142 10.2523 54.9052 13.2678C57.6071 16.1887 57.7234 20.7567 55.0729 23.8345C52.4414 26.8879 47.9221 27.3693 44.5171 25.1327L42.7645 27.0745C43.0864 28.1347 43.4217 29.3707 43.4163 30.5093L43.3866 39.9752C43.3866 40.7244 42.9944 41.7197 42.7132 42.577L44.5604 44.4945L44.5658 44.4999ZM27.2729 18.6391C27.2729 15.2854 24.5548 12.5646 21.1985 12.5646C17.8421 12.5646 15.1241 15.2827 15.1241 18.6391C15.1241 21.9954 17.8421 24.7135 21.1985 24.7135C24.5548 24.7135 27.2729 21.9954 27.2729 18.6391ZM55.1919 18.6391C55.1919 15.2854 52.4739 12.5646 49.1175 12.5646C45.7612 12.5646 43.0431 15.2827 43.0431 18.6391C43.0431 21.9954 45.7612 24.7135 49.1175 24.7135C52.4739 24.7135 55.1919 21.9954 55.1919 18.6391ZM38.9538 39.2531C38.9538 37.1544 37.2527 35.4559 35.1566 35.4559C33.0606 35.4559 31.3595 37.1571 31.3595 39.2531C31.3595 41.3491 33.0606 43.0503 35.1566 43.0503C37.2527 43.0503 38.9538 41.3491 38.9538 39.2531ZM27.2702 51.0098C27.2702 47.6561 24.5521 44.9381 21.1985 44.9381C17.8448 44.9381 15.1268 47.6561 15.1268 51.0098C15.1268 54.3634 17.8448 57.0815 21.1985 57.0815C24.5521 57.0815 27.2702 54.3634 27.2702 51.0098ZM55.1784 51.0152C55.1784 47.6616 52.4603 44.9435 49.1067 44.9435C45.7531 44.9435 43.035 47.6616 43.035 51.0152C43.035 54.3688 45.7531 57.0869 49.1067 57.0869C52.4603 57.0869 55.1784 54.3688 55.1784 51.0152Z" fill="url(#paint0_linear_81_293)"/>
<path d="M49.1172 52.546C49.9656 52.546 50.6534 51.8582 50.6534 51.0098C50.6534 50.1614 49.9656 49.4736 49.1172 49.4736C48.2688 49.4736 47.5811 50.1614 47.5811 51.0098C47.5811 51.8582 48.2688 52.546 49.1172 52.546Z" fill="url(#paint1_linear_81_293)"/>
<path d="M51.1757 50.2147L49.9424 48.9976L51.9275 47.0071C52.363 46.8556 53.2987 47.9428 52.9958 48.2647L51.1757 50.212V50.2147Z" fill="url(#paint2_linear_81_293)"/>
<path d="M46.2672 54.8909C45.9508 55.1505 44.9637 54.1526 45.0827 53.8605L47.0705 51.8293L48.3362 53.114L46.2672 54.8909Z" fill="url(#paint3_linear_81_293)"/>
<path d="M21.1956 52.5514C22.0455 52.5514 22.7345 51.8624 22.7345 51.0125C22.7345 50.1626 22.0455 49.4736 21.1956 49.4736C20.3457 49.4736 19.6567 50.1626 19.6567 51.0125C19.6567 51.8624 20.3457 52.5514 21.1956 52.5514Z" fill="url(#paint4_linear_81_293)"/>
<path d="M19.1215 50.1847L17.2743 48.2428C16.985 47.9372 17.9207 46.85 18.321 47.0041L20.4143 48.9514L19.1215 50.1847Z" fill="url(#paint5_linear_81_293)"/>
<path d="M24.1272 55.1128L22.0122 53.0573L23.2671 51.8105L25.1846 53.8227C25.2441 54.1473 24.6194 54.8423 24.1272 55.1128Z" fill="url(#paint6_linear_81_293)"/>
<path d="M21.2093 20.1754C22.0562 20.1754 22.7427 19.4888 22.7427 18.6419C22.7427 17.795 22.0562 17.1084 21.2093 17.1084C20.3623 17.1084 19.6758 17.795 19.6758 18.6419C19.6758 19.4888 20.3623 20.1754 21.2093 20.1754Z" fill="url(#paint7_linear_81_293)"/>
<path d="M23.2676 17.8737L22.0479 16.5674L24.0654 14.6364C24.4657 14.5661 25.4177 15.5532 25.1202 15.8751L23.2676 17.8737Z" fill="url(#paint8_linear_81_293)"/>
<path d="M18.3286 22.593C17.9824 22.8039 17.0791 21.7708 17.2549 21.4138L19.1967 19.4395L20.384 20.7728L18.3313 22.593H18.3286Z" fill="url(#paint9_linear_81_293)"/>
<path d="M49.1011 20.1673C49.9495 20.1673 50.6373 19.4796 50.6373 18.6312C50.6373 17.7827 49.9495 17.095 49.1011 17.095C48.2527 17.095 47.5649 17.7827 47.5649 18.6312C47.5649 19.4796 48.2527 20.1673 49.1011 20.1673Z" fill="url(#paint10_linear_81_293)"/>
<path d="M52.1005 22.7635L49.9287 20.6783L51.189 19.4558L53.2229 21.5924C53.0308 21.871 52.498 22.4227 52.1005 22.7662V22.7635Z" fill="url(#paint11_linear_81_293)"/>
<path d="M47.1187 17.8194L45.0254 15.7504L46.1802 14.5063L48.3385 16.6024L47.1187 17.8194Z" fill="url(#paint12_linear_81_293)"/>
<path d="M35.1594 41.8035C36.5605 41.8035 37.6963 40.6677 37.6963 39.2666C37.6963 37.8655 36.5605 36.7297 35.1594 36.7297C33.7584 36.7297 32.6226 37.8655 32.6226 39.2666C32.6226 40.6677 33.7584 41.8035 35.1594 41.8035Z" fill="url(#paint13_linear_81_293)"/>
<defs>
<linearGradient id="paint0_linear_81_293" x1="51.185" y1="49.4684" x2="25.5086" y2="14.6666" gradientUnits="userSpaceOnUse">
<stop offset="0.29" stop-color="#3A77CE"/>
<stop offset="1" stop-color="#0EDDC9"/>
</linearGradient>
<linearGradient id="paint1_linear_81_293" x1="50.2445" y1="51.9436" x2="48.6617" y2="49.5766" gradientUnits="userSpaceOnUse">
<stop offset="0.29" stop-color="#3A77CE"/>
<stop offset="1" stop-color="#0EDDC9"/>
</linearGradient>
<linearGradient id="paint2_linear_81_293" x1="52.6407" y1="49.583" x2="50.9597" y2="47.1542" gradientUnits="userSpaceOnUse">
<stop offset="0.29" stop-color="#3A77CE"/>
<stop offset="1" stop-color="#0EDDC9"/>
</linearGradient>
<linearGradient id="paint3_linear_81_293" x1="47.9019" y1="54.325" x2="46.3346" y2="51.8608" gradientUnits="userSpaceOnUse">
<stop offset="0.29" stop-color="#3A77CE"/>
<stop offset="1" stop-color="#0EDDC9"/>
</linearGradient>
<linearGradient id="paint4_linear_81_293" x1="22.3249" y1="51.948" x2="20.7393" y2="49.5767" gradientUnits="userSpaceOnUse">
<stop offset="0.29" stop-color="#3A77CE"/>
<stop offset="1" stop-color="#0EDDC9"/>
</linearGradient>
<linearGradient id="paint5_linear_81_293" x1="19.9891" y1="49.5582" x2="18.3427" y2="47.0967" gradientUnits="userSpaceOnUse">
<stop offset="0.29" stop-color="#3A77CE"/>
<stop offset="1" stop-color="#0EDDC9"/>
</linearGradient>
<linearGradient id="paint6_linear_81_293" x1="24.7658" y1="54.4654" x2="23.0402" y2="51.9832" gradientUnits="userSpaceOnUse">
<stop offset="0.29" stop-color="#3A77CE"/>
<stop offset="1" stop-color="#0EDDC9"/>
</linearGradient>
<linearGradient id="paint7_linear_81_293" x1="22.3345" y1="19.5741" x2="20.7545" y2="17.2111" gradientUnits="userSpaceOnUse">
<stop offset="0.29" stop-color="#3A77CE"/>
<stop offset="1" stop-color="#0EDDC9"/>
</linearGradient>
<linearGradient id="paint8_linear_81_293" x1="24.7604" y1="17.2383" x2="23.0691" y2="14.7963" gradientUnits="userSpaceOnUse">
<stop offset="0.29" stop-color="#3A77CE"/>
<stop offset="1" stop-color="#0EDDC9"/>
</linearGradient>
<linearGradient id="paint9_linear_81_293" x1="19.9646" y1="21.9973" x2="18.3196" y2="19.5604" gradientUnits="userSpaceOnUse">
<stop offset="0.29" stop-color="#3A77CE"/>
<stop offset="1" stop-color="#0EDDC9"/>
</linearGradient>
<linearGradient id="paint10_linear_81_293" x1="50.2284" y1="19.565" x2="48.6456" y2="17.1979" gradientUnits="userSpaceOnUse">
<stop offset="0.29" stop-color="#3A77CE"/>
<stop offset="1" stop-color="#0EDDC9"/>
</linearGradient>
<linearGradient id="paint11_linear_81_293" x1="52.7844" y1="22.1172" x2="51.0758" y2="19.5745" gradientUnits="userSpaceOnUse">
<stop offset="0.29" stop-color="#3A77CE"/>
<stop offset="1" stop-color="#0EDDC9"/>
</linearGradient>
<linearGradient id="paint12_linear_81_293" x1="47.8975" y1="17.1699" x2="46.1907" y2="14.6173" gradientUnits="userSpaceOnUse">
<stop offset="0.29" stop-color="#3A77CE"/>
<stop offset="1" stop-color="#0EDDC9"/>
</linearGradient>
<linearGradient id="paint13_linear_81_293" x1="37.021" y1="40.8087" x2="34.4071" y2="36.8997" gradientUnits="userSpaceOnUse">
<stop offset="0.29" stop-color="#3A77CE"/>
<stop offset="1" stop-color="#0EDDC9"/>
</linearGradient>
</defs>
</svg>
