<svg width="70" height="70" viewBox="0 0 70 70" fill="none" xmlns="http://www.w3.org/2000/svg">
<path d="M40.2101 51.3583C38.9231 51.3583 37.6165 49.4115 36.6693 48.1376C36.1075 47.3798 35.1537 47.0532 34.2456 47.1381C32.0898 47.3537 31.7697 50.1954 29.3721 51.3322L20.3176 51.3779C17.4105 51.3909 15.209 49.209 15.209 46.3019V39.7233C15.209 36.9273 17.3125 34.6865 20.1739 34.6865H48.8269C51.747 34.68 53.942 36.8032 53.942 39.7364V46.2954C53.942 49.2221 51.747 51.3779 48.8399 51.3713L40.2101 51.3518V51.3583ZM17.6131 39.9455C17.6261 38.1359 19.2724 36.8881 20.9121 36.8881H26.9093C27.262 36.8881 27.556 36.666 27.5691 36.372C27.5691 36.1826 27.2555 35.8363 27.0464 35.8363L20.7815 35.8559C18.299 35.8624 16.509 37.9464 16.509 40.344V46.3476C16.5155 46.5501 16.8814 46.9094 17.0839 46.9029C17.2864 46.8964 17.5739 46.5371 17.5739 46.315L17.6065 39.952L17.6131 39.9455Z" fill="url(#paint0_linear_81_301)"/>
<path d="M44.2344 23.5676C37.682 22.4244 31.1884 22.4374 24.7339 23.6068C22.3103 24.0445 20.1218 24.8154 17.9986 25.9652C14.9478 27.618 12.7266 30.2703 11.8708 33.6412C11.6356 34.5493 11.8055 35.5227 12.302 36.287L13.3995 38.0051L13.3668 41.6766C11.4723 38.8283 10.4924 35.5357 10.8321 32.1191C11.1718 28.7024 12.7985 25.4621 15.6795 23.5023C18.0639 21.8822 20.6901 20.8434 23.5319 20.2163C30.7115 18.6223 38.0674 18.5962 45.2535 20.1314C48.3109 20.7846 51.133 21.8626 53.6612 23.6395C59.2076 27.5396 59.7825 35.9277 55.804 41.6635L55.7779 37.9333L56.9211 36.189C57.3849 35.4769 57.5025 34.497 57.2869 33.6478C56.3985 30.1462 54.0401 27.4351 50.8456 25.8018C48.7616 24.737 46.6711 23.9923 44.2344 23.5676Z" fill="url(#paint1_linear_81_301)"/>
<path d="M47.5007 32.1387C48.6896 32.1387 49.5062 32.7985 50.1399 33.6608H19.0176C19.6447 32.805 20.4875 32.1452 21.585 32.1452H47.5007V32.1387Z" fill="url(#paint2_linear_81_301)"/>
<defs>
<linearGradient id="paint0_linear_81_301" x1="48.7866" y1="48.1055" x2="43.8353" y2="30.9225" gradientUnits="userSpaceOnUse">
<stop offset="0.29" stop-color="#3A77CE"/>
<stop offset="1" stop-color="#0EDDC9"/>
</linearGradient>
<linearGradient id="paint1_linear_81_301" x1="52.0401" y1="37.2307" x2="44.7296" y2="14.2761" gradientUnits="userSpaceOnUse">
<stop offset="0.29" stop-color="#3A77CE"/>
<stop offset="1" stop-color="#0EDDC9"/>
</linearGradient>
<linearGradient id="paint2_linear_81_301" x1="45.9975" y1="33.3624" x2="45.9421" y2="31.6671" gradientUnits="userSpaceOnUse">
<stop offset="0.29" stop-color="#3A77CE"/>
<stop offset="1" stop-color="#0EDDC9"/>
</linearGradient>
</defs>
</svg>
