<svg width="70" height="70" viewBox="0 0 70 70" fill="none" xmlns="http://www.w3.org/2000/svg">
<path d="M34.7563 65.0539H13.2948C12.722 65.0553 12.2782 64.4616 12.4002 63.9679L13.3961 59.9233C13.4696 59.6237 13.9259 59.2825 14.2269 59.2825L21.1024 59.2866V57.2352C19.1273 57.6208 17.492 56.5653 17.2271 54.6457L17.2409 34.9707C17.2423 32.9803 19.119 31.793 21.1052 32.2036L21.108 10.0112C21.108 8.36482 22.1496 7.12204 23.7697 6.97086C25.1678 6.84048 26.8613 7.91819 26.8641 9.58956L26.9016 32.2036C28.7727 31.8097 30.7353 32.9041 30.7381 34.8348L30.7714 54.647C30.5106 56.5667 28.8656 57.6236 26.9002 57.2366L26.8821 59.2866H33.8838C34.1252 59.3588 34.5413 59.6833 34.6009 59.9233L35.601 63.9762C35.6981 64.3715 35.3624 65.0581 34.7549 65.0581L34.7563 65.0539ZM24.9875 11.7145L24.9209 9.54101C24.9112 9.22893 24.2773 8.97095 23.9971 8.96956C23.7419 8.96817 23.1663 9.136 23.1122 9.44392C22.9707 10.2595 23.0193 10.9849 23.1136 11.7505L24.9861 11.7131L24.9875 11.7145ZM23.0193 13.7215V32.1356H24.9819V13.7215H23.0193ZM28.8489 39.8711L28.86 34.9305C28.7186 34.5615 28.3607 34.2023 27.9723 34.0553L20.4561 34.0622C19.8305 33.9554 19.1425 34.4201 19.1453 35.0886L19.1592 39.8808L28.8489 39.8711ZM27.8822 55.3822C28.4939 55.3433 28.817 54.9203 28.8573 54.3683V41.8088H19.1439V54.5014C19.2577 55.0507 19.6433 55.3849 20.1828 55.3822H27.8808H27.8822ZM24.9805 59.2534L24.9569 57.4683C24.3134 57.3365 23.8085 57.3226 23.0318 57.4045L23.0609 59.2506H24.9805V59.2534ZM33.3554 63.0663L32.8658 61.1966L15.0591 61.2021L14.6666 63.0663H33.3554Z" fill="url(#paint0_linear_81_285)"/>
<path d="M58.7641 63.5466C54.9804 64.8022 50.6815 65.0042 46.812 64.4101C45.5532 64.2168 44.3627 63.9214 43.1389 63.5144L43.7341 64.3526L43.0646 65L42.3647 63.5781L41.928 64.8511L41.004 64.6945L41.914 62.9937L40.1741 64.0388L39.5638 63.3315L41.2011 62.6758C40.1335 62.0938 39.0312 61.3221 38.4307 60.2611C38.1898 59.8354 38.0056 59.3754 38.0049 58.8769L38 55.4498C37.9983 54.3514 38.7171 53.3694 39.5365 52.6666C41.4042 51.0656 44.376 50.1885 46.8127 49.8151C49.5799 49.3908 52.3819 49.3863 55.1509 49.8106C57.6107 50.1875 60.5902 51.0597 62.4754 52.6829C63.2878 53.3822 63.9909 54.3583 63.9933 55.4498L64 58.4952C64.0014 59.099 63.9107 59.6418 63.6141 60.1752C62.9891 61.2985 61.925 62.0588 60.7646 62.6893L62.3588 63.3304L61.7597 64.0384L60.0257 63.0003L60.9221 64.6934L59.9988 64.8511L59.5625 63.576L58.866 64.9965L58.1937 64.3547L58.7638 63.5455L58.7641 63.5466ZM56.1761 58.9812C58.1048 58.5898 61.0114 57.6978 62.0552 56.0019C62.4236 55.4034 62.4674 54.7023 62.1508 54.0757C61.3661 52.5211 58.9336 51.6156 57.2749 51.1789C54.3441 50.4068 50.9816 50.264 47.9731 50.5886C45.6614 50.838 42.5636 51.5169 40.762 52.9797C39.797 53.7632 39.2518 54.8589 39.9241 55.9808C40.9508 57.6933 43.9106 58.5981 45.8442 58.9867C49.1118 59.6438 52.9099 59.6442 56.1761 58.9812ZM51.7232 62.9445C51.7232 62.5472 51.3976 62.2251 50.996 62.2251C50.5943 62.2251 50.2687 62.5472 50.2687 62.9445C50.2687 63.3419 50.5943 63.664 50.996 63.664C51.3976 63.664 51.7232 63.3419 51.7232 62.9445Z" fill="url(#paint1_linear_81_285)"/>
<path d="M57.0155 43.7108C54.4065 42.0485 51.4932 41.407 48.4538 42.1953C47.5406 42.4323 46.6898 42.7572 45.8554 43.1953C44.7874 43.7561 43.8028 44.4243 42.9319 45.2501C42.7337 45.4382 42.4743 45.4881 42.2659 45.2913C42.0909 45.1261 42.0821 44.8362 42.2897 44.6425C43.8 43.2355 45.619 42.1576 47.6026 41.532C49.9353 40.7963 52.4032 40.8195 54.7058 41.6276C56.6142 42.2972 58.1731 43.3252 59.6857 44.6332C59.8832 44.804 59.9175 45.0696 59.7586 45.2595C59.5985 45.4507 59.3135 45.4728 59.1171 45.3C58.4511 44.7146 57.7669 44.1895 57.0155 43.7108Z" fill="url(#paint2_linear_81_285)"/>
<path d="M56.5767 46.5328C54.4177 44.5715 51.7348 43.559 48.8415 44.4884C47.5133 44.9152 46.3267 45.6536 45.3165 46.6069C45.1365 46.777 44.8364 46.6848 44.7107 46.5182C44.5657 46.3267 44.6008 46.0818 44.7884 45.9058C45.8935 44.8691 47.2147 44.0776 48.6737 43.629C50.5369 43.0564 52.4901 43.1863 54.265 43.9737C55.3459 44.4531 56.3018 45.1154 57.1853 45.8933C57.394 46.0773 57.4381 46.3585 57.2525 46.5529C57.055 46.7597 56.7844 46.7212 56.5767 46.5328Z" fill="url(#paint3_linear_81_285)"/>
<path d="M53.4646 47.1518C52.4621 46.2664 51.268 45.8313 49.9585 46.2837C49.3993 46.4767 48.9196 46.7856 48.4854 47.1805C48.304 47.3454 48.0204 47.2945 47.8764 47.1261C47.7136 46.9356 47.7444 46.6751 47.9388 46.4985C49.2557 45.3014 51.045 44.8473 52.7082 45.6162C53.2275 45.8563 53.688 46.167 54.1036 46.5546C54.2874 46.7261 54.2429 47.0097 54.0857 47.1594C53.9103 47.3267 53.6512 47.3166 53.4646 47.1518Z" fill="url(#paint4_linear_81_285)"/>
<path d="M55.0865 56.1713C52.967 57.2576 49.0806 57.2597 46.9545 56.1949C46.6019 56.0182 46.2895 55.7976 46.0644 55.483C45.8105 55.1283 45.8393 54.6909 46.1117 54.3549C46.6674 53.6694 47.8337 53.2994 48.7256 53.1293C50.1812 52.8519 51.6571 52.8453 53.1151 53.1013C54.0563 53.2665 55.2633 53.6261 55.8645 54.3344C56.1586 54.6812 56.1873 55.1384 55.9135 55.5031C55.6989 55.7889 55.4128 56.0044 55.0865 56.1713Z" fill="url(#paint5_linear_81_285)"/>
<defs>
<linearGradient id="paint0_linear_81_285" x1="32.5246" y1="53.6675" x2="3.98875" y2="36.5985" gradientUnits="userSpaceOnUse">
<stop offset="0.29" stop-color="#3A77CE"/>
<stop offset="1" stop-color="#0EDDC9"/>
</linearGradient>
<linearGradient id="paint1_linear_81_285" x1="60.5394" y1="60.2946" x2="48.5796" y2="40.9183" gradientUnits="userSpaceOnUse">
<stop offset="0.29" stop-color="#3A77CE"/>
<stop offset="1" stop-color="#0EDDC9"/>
</linearGradient>
<linearGradient id="paint2_linear_81_285" x1="60.5394" y1="60.2946" x2="48.5796" y2="40.9183" gradientUnits="userSpaceOnUse">
<stop offset="0.29" stop-color="#3A77CE"/>
<stop offset="1" stop-color="#0EDDC9"/>
</linearGradient>
<linearGradient id="paint3_linear_81_285" x1="60.5394" y1="60.2946" x2="48.5796" y2="40.9183" gradientUnits="userSpaceOnUse">
<stop offset="0.29" stop-color="#3A77CE"/>
<stop offset="1" stop-color="#0EDDC9"/>
</linearGradient>
<linearGradient id="paint4_linear_81_285" x1="60.5394" y1="60.2946" x2="48.5796" y2="40.9183" gradientUnits="userSpaceOnUse">
<stop offset="0.29" stop-color="#3A77CE"/>
<stop offset="1" stop-color="#0EDDC9"/>
</linearGradient>
<linearGradient id="paint5_linear_81_285" x1="60.5394" y1="60.2946" x2="48.5796" y2="40.9183" gradientUnits="userSpaceOnUse">
<stop offset="0.29" stop-color="#3A77CE"/>
<stop offset="1" stop-color="#0EDDC9"/>
</linearGradient>
</defs>
</svg>
