<svg width="70" height="70" viewBox="0 0 70 70" fill="none" xmlns="http://www.w3.org/2000/svg">
<path d="M35.0001 13.5334C33.1401 13.5334 31.7385 13.7163 30.7924 13.9018C29.9306 14.072 29.1996 14.752 28.8607 15.7226C28.3053 17.3168 27.2809 19.885 25.9768 21.6493C24.0767 22.4787 22.7334 24.3746 22.7334 26.5668V43.4334C22.7334 45.6257 24.0767 47.5215 25.9768 48.3509C27.2813 50.1156 28.3065 52.6859 28.8607 54.2776C29.1981 55.2482 29.9306 55.9252 30.7924 56.0954C31.7385 56.2825 33.1401 56.4668 35.0001 56.4668C36.86 56.4668 38.2617 56.284 39.2077 56.0984C40.0695 55.9282 40.8005 55.2482 41.1394 54.2776C41.6949 52.6834 42.7192 50.1153 44.0234 48.3509C45.9234 47.5215 47.2667 45.6257 47.2667 43.4334V33.4668H47.4374C48.1903 33.4668 48.8001 32.857 48.8001 32.1042V28.6961C48.8001 27.9432 48.1903 27.3334 47.4374 27.3334H47.2667V26.5668C47.2667 24.3746 45.9234 22.4787 44.0234 21.6493C42.7189 19.8847 41.6936 17.3143 41.1394 15.7226C40.8021 14.752 40.0695 14.075 39.2077 13.9048C38.2617 13.7177 36.86 13.5334 35.0001 13.5334ZM28.1001 24.2668H41.9001C43.1893 24.2668 44.2001 25.2775 44.2001 26.5668V43.4334C44.2001 44.7227 43.1893 45.7334 41.9001 45.7334H28.1001C26.8108 45.7334 25.8001 44.7227 25.8001 43.4334V26.5668C25.8001 25.2775 26.8108 24.2668 28.1001 24.2668Z" fill="url(#paint0_linear_81_272)"/>
<defs>
<linearGradient id="paint0_linear_81_272" x1="45.3306" y1="48.0494" x2="21.5078" y2="26.4188" gradientUnits="userSpaceOnUse">
<stop offset="0.29" stop-color="#3A77CE"/>
<stop offset="1" stop-color="#0EDDC9"/>
</linearGradient>
</defs>
</svg>
