<svg width="70" height="70" viewBox="0 0 70 70" fill="none" xmlns="http://www.w3.org/2000/svg">
<path d="M21 48.9944V19.4944V18.9944C22.3333 19.3277 26.4 20.2944 32 21.4944C35 21.9944 35.5 21.9944 37 21.4944L49 16.9944V47.9944C48.6 50.7944 46.5 52.1611 45.5 52.4944C44.6667 52.8277 42.2 53.7944 39 54.9944C35 56.4944 34.5215 56.3987 32.5 55.9944C30 55.4944 25.7 54.3944 24.5 53.9944C21.7 52.7944 21 50.1611 21 48.9944Z" fill="url(#paint0_linear_81_309)"/>
<path d="M34 20.9943L21 17.9943V17.9637C23.4053 16.9943 29.1436 14.7647 32.8545 13.6015C35.4488 12.7884 36 12.9944 36.9779 13.1168C37.3017 13.1574 39.658 13.6015 48.317 15.5402C49.554 15.928 48.8324 16.348 48.317 16.5096C45.5681 17.479 39.7176 19.5884 37 20.4943C35.5 20.9943 34.859 21.1558 34 20.9943Z" fill="url(#paint1_linear_81_309)"/>
<path d="M33.9636 17.9637L31 17.3579V17.2367C31.6013 16.9944 33.0359 16.437 33.9636 16.1462C34.376 15.9523 34.8227 15.9846 34.9945 16.025C35.0374 16.025 35.6645 16.1462 37.8292 16.6309C38.1385 16.7278 37.9581 16.8328 37.8292 16.8732C37.142 17.1156 35.613 17.6487 34.9945 17.8426C34.6852 18.0364 34.1784 18.0041 33.9636 17.9637Z" fill="white"/>
<defs>
<linearGradient id="paint0_linear_81_309" x1="45.2732" y1="48.5546" x2="23.4343" y2="25.2599" gradientUnits="userSpaceOnUse">
<stop offset="0.29" stop-color="#3A77CE"/>
<stop offset="1" stop-color="#0EDDC9"/>
</linearGradient>
<linearGradient id="paint1_linear_81_309" x1="45.2732" y1="19.4754" x2="43.6074" y2="10.8155" gradientUnits="userSpaceOnUse">
<stop offset="0.29" stop-color="#3A77CE"/>
<stop offset="1" stop-color="#0EDDC9"/>
</linearGradient>
</defs>
</svg>
