<svg width="56" height="56" viewBox="0 0 56 56" fill="none" xmlns="http://www.w3.org/2000/svg">
<path d="M56 28.006C56 43.4748 43.4728 56 28.0085 56C12.5422 56 0 43.4748 0 28.006C0 12.5372 12.5422 0 28.0085 0C43.473 0 56 12.5372 56 28.006Z" fill="black" fill-opacity="0.05"/>
<path d="M41.5788 33.3229C31.469 33.3725 29.8336 39.4626 29.2886 44.612L29.0408 46.8896H27.0088L26.761 44.612C26.216 39.4626 24.531 33.3725 14.7681 33.3229C13.1327 29.9558 12.4389 27.2326 12.4389 24.1628C12.4389 16.4883 18.7328 9.30858 28.0494 9.30858C37.3663 9.30858 43.561 16.4385 43.561 24.2125C43.561 27.2326 43.2637 29.9558 41.5788 33.3229ZM27.9505 0C12.5878 0 0 12.5766 0 27.9751C0 43.4236 12.5878 56 27.9505 56C43.4618 56 56 43.4236 56 27.9751C56 12.5766 43.4618 0 27.9505 0Z" fill="#29B24A"/>
</svg>
