<svg width="24" height="24" viewBox="0 0 24 24" fill="none" xmlns="http://www.w3.org/2000/svg">
<path d="M11.9996 2.3999C17.3012 2.3999 21.5996 6.6983 21.5996 11.9999C21.5996 17.3015 17.3012 21.5999 11.9996 21.5999C6.69801 21.5999 2.39961 17.3015 2.39961 11.9999C2.39961 6.6983 6.69801 2.3999 11.9996 2.3999ZM11.9996 3.9999C7.58121 3.9999 3.99961 7.5815 3.99961 11.9999C3.99961 16.4183 7.58121 19.9999 11.9996 19.9999C16.418 19.9999 19.9996 16.4183 19.9996 11.9999C19.9996 7.5815 16.418 3.9999 11.9996 3.9999ZM12.7996 7.9999C13.0044 7.9999 13.2092 8.07828 13.3652 8.23428L16.5652 11.4343C16.878 11.7471 16.878 12.2527 16.5652 12.5655L13.3652 15.7655C13.0524 16.0783 12.5468 16.0783 12.234 15.7655C11.9212 15.4527 11.9212 14.9471 12.234 14.6343L14.0684 12.7999H7.99961C7.55801 12.7999 7.19961 12.4423 7.19961 11.9999C7.19961 11.5575 7.55801 11.1999 7.99961 11.1999H14.0684L12.234 9.36553C11.9212 9.05273 11.9212 8.54708 12.234 8.23428C12.39 8.07828 12.5948 7.9999 12.7996 7.9999Z" fill="#1A498F"/>
</svg>
