<svg width="16" height="16" viewBox="0 0 16 16" fill="none" xmlns="http://www.w3.org/2000/svg">
<path d="M4.06198 2.13379C3.65908 2.13379 3.28764 2.36369 3.10781 2.72441L2.13281 4.67441V4.80046V6.40046V12.8005C2.13281 13.3898 2.61015 13.8671 3.19948 13.8671H12.7995C13.3888 13.8671 13.8661 13.3898 13.8661 12.8005V6.40046V4.80046V4.67441L12.8901 2.72337C12.71 2.36344 12.3394 2.13379 11.937 2.13379H4.06198ZM4.06302 3.20046H11.9359L12.7359 4.80046H3.26302L4.06302 3.20046ZM7.99948 6.40046C8.29441 6.40046 8.53281 6.63939 8.53281 6.93379V10.4463L9.2224 9.75671C9.43093 9.54817 9.76803 9.54817 9.97656 9.75671C10.1851 9.96524 10.1851 10.3023 9.97656 10.5109L8.37656 12.1109C8.27256 12.2149 8.13601 12.2671 7.99948 12.2671C7.86295 12.2671 7.7264 12.2149 7.6224 12.1109L6.0224 10.5109C5.81386 10.3023 5.81386 9.96524 6.0224 9.75671C6.23093 9.54817 6.56803 9.54817 6.77656 9.75671L7.46615 10.4463V6.93379C7.46615 6.63939 7.70455 6.40046 7.99948 6.40046Z" fill="#3C78CD"/>
</svg>
