<svg width="30" height="30" viewBox="0 0 30 30" fill="none" xmlns="http://www.w3.org/2000/svg">
<path d="M23 2H7C5.895 2 5 2.895 5 4V26C5 27.105 5.895 28 7 28H18.5C18.765 28 19.019 27.895 19.207 27.707L24.707 22.207C24.895 22.019 25 21.765 25 21.5V4C25 2.895 24.105 2 23 2ZM9 6C9.552 6 10 6.448 10 7C10 7.552 9.552 8 9 8C8.448 8 8 7.552 8 7C8 6.448 8.448 6 9 6ZM13 6H21C21.552 6 22 6.448 22 7C22 7.552 21.552 8 21 8H13C12.448 8 12 7.552 12 7C12 6.448 12.448 6 13 6ZM9 11C9.552 11 10 11.448 10 12C10 12.552 9.552 13 9 13C8.448 13 8 12.552 8 12C8 11.448 8.448 11 9 11ZM13 11H21C21.552 11 22 11.448 22 12C22 12.552 21.552 13 21 13H13C12.448 13 12 12.552 12 12C12 11.448 12.448 11 13 11ZM9 16C9.552 16 10 16.448 10 17C10 17.552 9.552 18 9 18C8.448 18 8 17.552 8 17C8 16.448 8.448 16 9 16ZM13 16H21C21.552 16 22 16.448 22 17C22 17.552 21.552 18 21 18H13C12.448 18 12 17.552 12 17C12 16.448 12.448 16 13 16ZM9 21C9.552 21 10 21.448 10 22C10 22.552 9.552 23 9 23C8.448 23 8 22.552 8 22C8 21.448 8.448 21 9 21ZM13 21H16V23H13C12.448 23 12 22.552 12 22C12 21.448 12.448 21 13 21ZM18 26.096V22C18 21.448 18.448 21 19 21H23.096L18 26.096Z" fill="#0EDDC9"/>
</svg>
