<svg width="16" height="16" viewBox="0 0 16 16" fill="none" xmlns="http://www.w3.org/2000/svg">
<path d="M11.2001 0.533203H4.80007C4.21073 0.533203 3.7334 1.01054 3.7334 1.59987V14.3999C3.7334 14.9892 4.21073 15.4665 4.80007 15.4665H11.2001C11.7894 15.4665 12.2667 14.9892 12.2667 14.3999V1.59987C12.2667 1.01054 11.7894 0.533203 11.2001 0.533203ZM8.00007 14.3999C7.70567 14.3999 7.46673 14.1609 7.46673 13.8665C7.46673 13.5721 7.70567 13.3332 8.00007 13.3332C8.29447 13.3332 8.5334 13.5721 8.5334 13.8665C8.5334 14.1609 8.29447 14.3999 8.00007 14.3999ZM11.2001 12.7999H4.80007V2.1332H11.2001V12.7999Z" fill="white"/>
</svg>
