<svg width="24" height="24" viewBox="0 0 24 24" fill="none" xmlns="http://www.w3.org/2000/svg">
<path d="M9.58796 1.58886C9.37606 1.59217 9.17413 1.67942 9.02648 1.83146C8.87884 1.98349 8.79755 2.18789 8.80046 2.3998C8.80046 3.51117 8.70926 4.52715 8.54733 5.45449C7.07234 4.61524 6.24264 3.52167 6.24264 3.52167C6.11584 3.35135 5.92657 3.23838 5.71647 3.20762C5.50637 3.17685 5.29265 3.2308 5.12233 3.35761C4.95201 3.48442 4.83904 3.67369 4.80828 3.88379C4.77751 4.09389 4.83146 4.3076 4.95827 4.47792C4.95827 4.47792 6.10338 6.01738 8.16139 7.06074C7.85466 8.05241 7.45312 8.90615 6.96452 9.59511C6.92274 9.65402 6.87609 9.70398 6.83327 9.76074C5.55225 8.70433 3.84085 7.9998 1.60046 7.9998C1.49445 7.9983 1.3892 8.01788 1.29082 8.05741C1.19245 8.09695 1.10291 8.15563 1.02741 8.23007C0.951919 8.30451 0.89197 8.3932 0.851052 8.49101C0.810134 8.58881 0.789062 8.69378 0.789062 8.7998C0.789062 8.90582 0.810134 9.01078 0.851052 9.10859C0.89197 9.20639 0.951919 9.29509 1.02741 9.36953C1.10291 9.44396 1.19245 9.50265 1.29082 9.54218C1.3892 9.58171 1.49445 9.6013 1.60046 9.5998C3.44652 9.5998 4.77812 10.0878 5.76452 10.867C4.82217 11.6142 3.7005 11.9998 2.38014 11.9998C2.27413 11.9983 2.16888 12.0179 2.07051 12.0574C1.97213 12.0969 1.8826 12.1556 1.8071 12.2301C1.73161 12.3045 1.67166 12.3932 1.63074 12.491C1.58982 12.5888 1.56875 12.6938 1.56875 12.7998C1.56875 12.9058 1.58982 13.0108 1.63074 13.1086C1.67166 13.2064 1.73161 13.2951 1.8071 13.3695C1.8826 13.444 1.97213 13.5026 2.07051 13.5422C2.16888 13.5817 2.27413 13.6013 2.38014 13.5998C4.07146 13.5998 5.60189 13.0386 6.84889 12.0295C7.27977 12.6252 7.6242 13.2861 7.89421 13.9889C8.04185 14.3731 8.04857 14.7411 8.15202 15.1326C7.54984 15.3834 7.02408 15.6812 6.56921 16.006C6.47032 16.0304 6.37698 16.0733 6.29421 16.1326C5.71246 16.5396 5.44508 16.5118 4.87233 16.4014C4.29958 16.2909 3.48966 15.9998 2.40046 15.9998C2.29445 15.9983 2.1892 16.0179 2.09082 16.0574C1.99245 16.0969 1.90291 16.1556 1.82741 16.2301C1.75192 16.3045 1.69197 16.3932 1.65105 16.491C1.61013 16.5888 1.58906 16.6938 1.58906 16.7998C1.58906 16.9058 1.61013 17.0108 1.65105 17.1086C1.69197 17.2064 1.75192 17.2951 1.82741 17.3695C1.90291 17.444 1.99245 17.5027 2.09082 17.5422C2.1892 17.5817 2.29445 17.6013 2.40046 17.5998C3.19605 17.5998 3.81156 17.8271 4.56921 17.9732C4.62811 17.9846 4.69539 17.9861 4.75671 17.9951C4.16252 19.0136 4.01139 19.8685 4.01139 19.8685C3.99172 19.9732 3.99314 20.0807 4.01556 20.1848C4.03797 20.2889 4.08095 20.3875 4.14195 20.4748C4.20296 20.562 4.28077 20.6362 4.37083 20.6931C4.46089 20.7499 4.56138 20.7881 4.66642 20.8056C4.77146 20.8231 4.87893 20.8194 4.98253 20.7948C5.08613 20.7702 5.18378 20.7252 5.26975 20.6623C5.35573 20.5995 5.42829 20.5202 5.4832 20.4289C5.53811 20.3377 5.57426 20.2364 5.58952 20.131C5.58952 20.131 5.74885 19.1511 6.61452 18.1123C7.04531 17.5954 7.64076 17.0708 8.49733 16.6732C8.71411 18.1132 8.80046 19.4118 8.80046 19.9998C8.79896 20.1058 8.81854 20.2111 8.85807 20.3094C8.8976 20.4078 8.95629 20.4973 9.03073 20.5728C9.10516 20.6483 9.19386 20.7083 9.29167 20.7492C9.38947 20.7901 9.49444 20.8112 9.60046 20.8112C9.70648 20.8112 9.81144 20.7901 9.90924 20.7492C10.0071 20.7083 10.0957 20.6483 10.1702 20.5728C10.2446 20.4973 10.3033 20.4078 10.3428 20.3094C10.3824 20.2111 10.402 20.1058 10.4005 19.9998C10.4005 19.4028 10.2962 17.8834 10.0161 16.1842C10.5936 16.0675 11.251 15.9998 12.0005 15.9998C12.5677 15.9998 13.064 16.0567 13.5161 16.1467C13.2572 17.6222 13.4313 18.8893 13.7926 19.8717C14.4043 21.5346 15.513 22.4529 15.513 22.4529C15.5941 22.5198 15.6876 22.5699 15.7882 22.6006C15.8887 22.6313 15.9943 22.6419 16.099 22.6317C16.2036 22.6216 16.3052 22.5909 16.398 22.5415C16.4908 22.4921 16.5729 22.4249 16.6397 22.3437C16.7065 22.2625 16.7567 22.169 16.7873 22.0684C16.818 21.9679 16.8285 21.8623 16.8183 21.7576C16.8082 21.653 16.7775 21.5514 16.728 21.4587C16.6786 21.3659 16.6113 21.2838 16.5301 21.217C16.5301 21.217 15.761 20.5892 15.2942 19.3201C15.038 18.6236 14.8839 17.7435 15.0333 16.6685C15.7613 17.0563 16.2754 17.5669 16.6598 18.0795C17.4404 19.1202 17.6114 20.131 17.6114 20.131C17.6267 20.2364 17.6628 20.3377 17.7177 20.4289C17.7726 20.5202 17.8452 20.5995 17.9312 20.6623C18.0171 20.7252 18.1148 20.7702 18.2184 20.7948C18.322 20.8194 18.4295 20.8231 18.5345 20.8056C18.6395 20.7881 18.74 20.7499 18.8301 20.6931C18.9201 20.6362 18.998 20.562 19.059 20.4748C19.12 20.3875 19.1629 20.2889 19.1854 20.1848C19.2078 20.0807 19.2092 19.9732 19.1895 19.8685C19.1895 19.8685 18.9605 18.4794 17.9411 17.1201C17.3847 16.3782 16.5573 15.643 15.438 15.1217C15.6164 14.6473 15.8416 14.1505 16.1505 13.6139C16.1532 13.6092 16.154 13.6045 16.1567 13.5998C16.1591 13.5956 16.1621 13.593 16.1645 13.5889C16.3758 13.2242 16.5895 12.9229 16.8051 12.6498C16.9389 12.7864 17.0677 12.9316 17.2098 13.0545C18.2006 13.9115 19.4227 14.3998 20.8005 14.3998C20.9065 14.4013 21.0117 14.3817 21.1101 14.3422C21.2085 14.3026 21.298 14.244 21.3735 14.1695C21.449 14.0951 21.5089 14.0064 21.5499 13.9086C21.5908 13.8108 21.6118 13.7058 21.6118 13.5998C21.6118 13.4938 21.5908 13.3888 21.5499 13.291C21.5089 13.1932 21.449 13.1045 21.3735 13.0301C21.298 12.9556 21.2085 12.8969 21.1101 12.8574C21.0117 12.8179 20.9065 12.7983 20.8005 12.7998C19.7782 12.7998 19 12.4881 18.2567 11.8451C18.1585 11.7602 18.0639 11.652 17.9676 11.5545C18.6767 11.0931 19.3711 10.9588 19.9958 10.956C21.1528 10.9508 22.0208 11.4435 22.0208 11.4435C22.1118 11.4961 22.2122 11.5302 22.3164 11.5439C22.4206 11.5576 22.5264 11.5506 22.6279 11.5234C22.7294 11.4962 22.8246 11.4493 22.9079 11.3853C22.9913 11.3213 23.0612 11.2416 23.1137 11.1506C23.1663 11.0596 23.2004 10.9591 23.2141 10.8549C23.2278 10.7508 23.2208 10.6449 23.1936 10.5434C23.1664 10.4419 23.1195 10.3468 23.0555 10.2634C22.9915 10.1801 22.9118 10.1101 22.8208 10.0576C22.8208 10.0576 22.0847 9.75633 21.1348 9.55292C22.04 8.4938 22.3801 7.38261 22.3801 7.38261C22.4094 7.26554 22.4117 7.14338 22.387 7.02527C22.3624 6.90715 22.3113 6.79615 22.2377 6.70057C22.164 6.60499 22.0697 6.5273 21.9618 6.47332C21.8539 6.41934 21.7352 6.39047 21.6145 6.38886C21.4301 6.38601 21.2503 6.44698 21.1057 6.56145C20.961 6.67591 20.8604 6.83684 20.8208 7.01699C20.8208 7.01699 20.3831 8.93737 18.3958 9.5998C18.2223 9.65526 18.0729 9.76825 17.9723 9.92011C17.67 10.0473 17.3684 10.1996 17.0692 10.381L16.1755 8.83261C15.9516 8.36215 15.7603 7.91777 15.6083 7.38261C16.9715 6.86854 17.9578 6.10035 18.6145 5.3123C19.7489 3.9511 19.9895 2.53105 19.9895 2.53105C20.0111 2.41248 20.0056 2.29058 19.9734 2.17444C19.9412 2.0583 19.8832 1.95093 19.8038 1.86034C19.7243 1.76975 19.6254 1.69828 19.5144 1.65127C19.4035 1.60426 19.2833 1.58293 19.163 1.58886C18.9785 1.59799 18.8028 1.67067 18.6659 1.79456C18.5289 1.91845 18.439 2.08592 18.4114 2.26855C18.4114 2.26855 18.2521 3.2485 17.3864 4.2873C16.9265 4.83918 16.2724 5.39601 15.3192 5.80136C15.2435 5.11186 15.2005 4.28387 15.2005 3.1998C15.2019 3.09277 15.1819 2.98653 15.1416 2.88738C15.1012 2.78822 15.0414 2.69817 14.9656 2.62256C14.8899 2.54694 14.7997 2.48729 14.7005 2.44715C14.6013 2.40701 14.495 2.38719 14.388 2.38886C14.1761 2.39217 13.9741 2.47942 13.8265 2.63146C13.6788 2.78349 13.5976 2.98789 13.6005 3.1998C13.6005 4.43941 13.6634 5.4229 13.7739 6.24667C13.2458 6.33989 12.6646 6.3998 12.0005 6.3998C11.2951 6.3998 10.6465 6.28606 10.0567 6.10761C10.2811 4.97526 10.4005 3.73908 10.4005 2.3998C10.4019 2.29277 10.3819 2.18653 10.3416 2.08738C10.3012 1.98822 10.2414 1.89817 10.1656 1.82256C10.0899 1.74694 9.99972 1.68729 9.90049 1.64715C9.80126 1.60701 9.69498 1.58719 9.58796 1.58886ZM12.8005 10.3998C13.6845 10.3998 14.4005 11.1158 14.4005 11.9998C14.4005 12.8838 13.6845 13.5998 12.8005 13.5998C11.9165 13.5998 11.2005 12.8838 11.2005 11.9998C11.2005 11.1158 11.9165 10.3998 12.8005 10.3998Z" fill="#0EDDC9"/>
</svg>
