<svg width="60" height="60" viewBox="0 0 60 60" fill="none" xmlns="http://www.w3.org/2000/svg">
<path d="M30 6C20.796 6 11.2227 8.07422 11.2227 8.07422L11.2148 8.08203C10.309 8.26337 9.49377 8.7527 8.90774 9.4669C8.32171 10.1811 8.00097 11.0761 8 12V24C8 44.796 28.043 53.4883 28.043 53.4883C28.6407 53.8237 29.3146 53.9999 30 54C30.6828 53.9986 31.3538 53.8224 31.9492 53.4883H31.957C31.957 53.4883 52 44.796 52 24V12C52.0005 11.0737 51.6794 10.1759 51.0917 9.45999C50.504 8.74402 49.686 8.25423 48.7773 8.07422C48.7773 8.07422 39.204 6 30 6ZM30 20C33.314 20 36 22.686 36 26C36 28.608 34.326 30.8068 32 31.6328V38C32 39.104 31.104 40 30 40C28.896 40 28 39.104 28 38V31.6328C25.674 30.8068 24 28.608 24 26C24 22.686 26.686 20 30 20Z" fill="white"/>
</svg>
