<svg width="30" height="30" viewBox="0 0 30 30" fill="none" xmlns="http://www.w3.org/2000/svg">
<path d="M26.0136 7.98446C26.0111 7.83268 25.9741 7.68346 25.9054 7.54811C25.8367 7.41275 25.7381 7.2948 25.6171 7.20321L21.7069 3.29305C21.6148 3.19708 21.5044 3.12046 21.3823 3.06767C21.2602 3.01489 21.1287 2.987 20.9957 2.98565C20.8627 2.9843 20.7307 3.0095 20.6075 3.05979C20.4843 3.11008 20.3724 3.18444 20.2783 3.27852C20.1843 3.3726 20.1099 3.4845 20.0596 3.60768C20.0093 3.73086 19.9841 3.86283 19.9855 3.99587C19.9868 4.12891 20.0147 4.26034 20.0675 4.38247C20.1203 4.5046 20.1969 4.61497 20.2929 4.70711L22.5858 7.00008L12.9999 7.00008C12.8674 6.99821 12.7358 7.02269 12.6129 7.0721C12.4899 7.12151 12.378 7.19488 12.2836 7.28792C12.1892 7.38096 12.1143 7.49184 12.0632 7.61409C12.012 7.73635 11.9857 7.86755 11.9857 8.00008C11.9857 8.1326 12.012 8.26381 12.0632 8.38607C12.1143 8.50832 12.1892 8.6192 12.2836 8.71224C12.378 8.80528 12.4899 8.87865 12.6129 8.92806C12.7358 8.97747 12.8674 9.00195 12.9999 9.00008L22.5858 9.00008L20.2929 11.293C20.1969 11.3852 20.1203 11.4956 20.0675 11.6177C20.0147 11.7398 19.9868 11.8713 19.9855 12.0043C19.9841 12.1373 20.0093 12.2693 20.0596 12.3925C20.1099 12.5157 20.1843 12.6276 20.2783 12.7216C20.3724 12.8157 20.4843 12.8901 20.6075 12.9404C20.7307 12.9907 20.8627 13.0159 20.9957 13.0145C21.1287 13.0132 21.2602 12.9853 21.3823 12.9325C21.5044 12.8797 21.6148 12.8031 21.7069 12.7071L25.623 8.7911C25.7463 8.69629 25.8459 8.57401 25.9137 8.43398C25.9815 8.29395 26.0157 8.14003 26.0136 7.98446ZM25.9999 22.0001C25.9999 21.7349 25.8946 21.4805 25.707 21.293C25.5195 21.1054 25.2651 21.0001 24.9999 21.0001C24.7347 21.0001 24.4803 21.1054 24.2928 21.293C24.1053 21.4805 23.9999 21.7349 23.9999 22.0001C23.9999 22.2653 24.1053 22.5197 24.2928 22.7072C24.4803 22.8947 24.7347 23.0001 24.9999 23.0001C25.2651 23.0001 25.5195 22.8947 25.707 22.7072C25.8946 22.5197 25.9999 22.2653 25.9999 22.0001ZM21.9999 22.0001C21.9999 21.7349 21.8946 21.4805 21.707 21.293C21.5195 21.1054 21.2651 21.0001 20.9999 21.0001C20.7347 21.0001 20.4803 21.1054 20.2928 21.293C20.1053 21.4805 19.9999 21.7349 19.9999 22.0001C19.9999 22.2653 20.1053 22.5197 20.2928 22.7072C20.4803 22.8947 20.7347 23.0001 20.9999 23.0001C21.2651 23.0001 21.5195 22.8947 21.707 22.7072C21.8946 22.5197 21.9999 22.2653 21.9999 22.0001ZM18.0136 21.9845C18.0094 21.7196 17.9004 21.4672 17.7103 21.2826C17.5203 21.0981 17.2648 20.9965 16.9999 21.0001L7.41397 21.0001L9.70694 18.7071C9.80273 18.6139 9.87888 18.5025 9.93087 18.3794C9.98287 18.2562 10.0097 18.124 10.0097 17.9903C10.0096 17.7914 9.95024 17.597 9.83913 17.432C9.72801 17.267 9.57022 17.1388 9.3859 17.064C9.20159 16.9891 8.99914 16.9709 8.80444 17.0117C8.60973 17.0525 8.43162 17.1505 8.29288 17.293L4.38077 21.2052C4.25864 21.2982 4.15959 21.4182 4.09128 21.5557C4.02297 21.6932 3.98724 21.8446 3.98686 21.9981C3.98649 22.1517 4.02147 22.3033 4.0891 22.4411C4.15673 22.579 4.25519 22.6994 4.37686 22.793C4.37881 22.7944 4.38076 22.7957 4.38272 22.797L8.29288 26.7071C8.38502 26.8031 8.49539 26.8797 8.61752 26.9325C8.73965 26.9853 8.87108 27.0132 9.00412 27.0145C9.13716 27.0159 9.26914 26.9907 9.39232 26.9404C9.51549 26.8901 9.6274 26.8157 9.72148 26.7217C9.81556 26.6276 9.88992 26.5157 9.94021 26.3925C9.9905 26.2693 10.0157 26.1373 10.0143 26.0043C10.013 25.8713 9.98511 25.7398 9.93232 25.6177C9.87954 25.4956 9.80291 25.3852 9.70694 25.293L7.41397 23.0001L16.9999 23.0001C17.1337 23.0019 17.2665 22.9769 17.3904 22.9265C17.5144 22.876 17.6269 22.8013 17.7215 22.7066C17.816 22.6119 17.8905 22.4992 17.9407 22.3751C17.9909 22.2511 18.0157 22.1182 18.0136 21.9845ZM9.99991 8.00008C9.99991 7.73486 9.89455 7.48051 9.70702 7.29297C9.51948 7.10544 9.26512 7.00008 8.99991 7.00008C8.73469 7.00008 8.48034 7.10544 8.2928 7.29297C8.10526 7.48051 7.99991 7.73486 7.99991 8.00008C7.99991 8.2653 8.10526 8.51965 8.2928 8.70719C8.48034 8.89472 8.73469 9.00008 8.99991 9.00008C9.26512 9.00008 9.51948 8.89472 9.70702 8.70719C9.89455 8.51965 9.99991 8.2653 9.99991 8.00008ZM5.99991 8.00008C5.99991 7.73486 5.89455 7.48051 5.70702 7.29297C5.51948 7.10544 5.26512 7.00008 4.99991 7.00008C4.73469 7.00008 4.48034 7.10544 4.2928 7.29297C4.10526 7.48051 3.99991 7.73486 3.99991 8.00008C3.99991 8.2653 4.10526 8.51965 4.2928 8.70719C4.48034 8.89472 4.73469 9.00008 4.99991 9.00008C5.26512 9.00008 5.51948 8.89472 5.70702 8.70719C5.89455 8.51965 5.99991 8.2653 5.99991 8.00008Z" fill="#0EDDC9"/>
</svg>
