<svg width="70" height="70" viewBox="0 0 70 70" fill="none" xmlns="http://www.w3.org/2000/svg">
<path d="M19.9998 16.6667C18.1582 16.6667 16.6665 18.1584 16.6665 20.0001V50.0001C16.6665 51.8418 18.1582 53.3334 19.9998 53.3334H20.9276C20.3542 52.3484 19.9998 51.2201 19.9998 50.0001V20.0001C19.9998 18.7801 20.3542 17.6517 20.9276 16.6667H19.9998ZM26.6665 16.6667C24.8248 16.6667 23.3332 18.1584 23.3332 20.0001V50.0001C23.3332 51.8418 24.8248 53.3334 26.6665 53.3334H27.5942C27.0209 52.3484 26.6665 51.2201 26.6665 50.0001V20.0001C26.6665 18.7801 27.0209 17.6517 27.5942 16.6667H26.6665ZM33.3332 16.6667C31.4915 16.6667 29.9998 18.1584 29.9998 20.0001V50.0001C29.9998 51.8418 31.4915 53.3334 33.3332 53.3334H49.9998C51.8415 53.3334 53.3332 51.8418 53.3332 50.0001V20.0001C53.3332 18.1584 51.8415 16.6667 49.9998 16.6667H33.3332ZM33.3332 20.0001H49.9998V48.3334H44.9998C44.9998 49.2534 44.2532 50.0001 43.3332 50.0001H39.9998C39.0798 50.0001 38.3332 49.2534 38.3332 48.3334H33.3332V20.0001Z" fill="url(#paint0_linear_81_256)"/>
<defs>
<linearGradient id="paint0_linear_81_256" x1="48.4528" y1="46.1446" x2="29.563" y2="17.895" gradientUnits="userSpaceOnUse">
<stop offset="0.29" stop-color="#3A77CE"/>
<stop offset="1" stop-color="#0EDDC9"/>
</linearGradient>
</defs>
</svg>
