<svg width="70" height="70" viewBox="0 0 70 70" fill="none" xmlns="http://www.w3.org/2000/svg">
<path d="M35 15.0667C32.0684 15.0667 29.2771 15.6662 26.7314 16.7168C26.5372 16.7876 26.3594 16.897 26.2086 17.0383C26.0578 17.1797 25.9371 17.35 25.8538 17.5392C25.7704 17.7283 25.7262 17.9323 25.7238 18.139C25.7213 18.3457 25.7606 18.5507 25.8394 18.7418C25.9182 18.9329 26.0348 19.1061 26.1822 19.251C26.3296 19.3958 26.5047 19.5094 26.6971 19.5849C26.8895 19.6604 27.0952 19.6962 27.3018 19.6902C27.5084 19.6841 27.7117 19.6364 27.8993 19.5499C30.0947 18.6439 32.4852 18.1333 35 18.1333C37.5148 18.1333 39.9053 18.6439 42.1007 19.5499C42.2883 19.6364 42.4916 19.6841 42.6982 19.6902C42.9048 19.6962 43.1105 19.6604 43.3029 19.5849C43.4953 19.5094 43.6704 19.3958 43.8178 19.251C43.9652 19.1061 44.0818 18.9329 44.1606 18.7418C44.2394 18.5507 44.2787 18.3457 44.2762 18.139C44.2738 17.9323 44.2296 17.7283 44.1462 17.5392C44.0629 17.35 43.9422 17.1797 43.7914 17.0383C43.6406 16.897 43.4628 16.7876 43.2686 16.7168C40.7229 15.6662 37.9316 15.0667 35 15.0667ZM35 21.2C33.43 21.2 31.9341 21.522 30.5737 22.0834C30.3795 22.1543 30.2017 22.2637 30.0509 22.405C29.9001 22.5463 29.7794 22.7167 29.6961 22.9058C29.6128 23.095 29.5685 23.299 29.5661 23.5057C29.5636 23.7124 29.6029 23.9174 29.6817 24.1085C29.7605 24.2996 29.8771 24.4727 30.0245 24.6176C30.1719 24.7625 30.347 24.8761 30.5395 24.9516C30.7319 25.0271 30.9375 25.0629 31.1441 25.0568C31.3507 25.0508 31.554 25.0031 31.7417 24.9165C32.7518 24.4997 33.8468 24.2667 35 24.2667C36.1532 24.2667 37.2482 24.4997 38.2583 24.9165C38.446 25.0031 38.6493 25.0508 38.8559 25.0568C39.0625 25.0629 39.2681 25.0271 39.4605 24.9516C39.653 24.8761 39.8281 24.7625 39.9755 24.6176C40.1229 24.4727 40.2395 24.2996 40.3183 24.1085C40.3971 23.9174 40.4364 23.7124 40.4339 23.5057C40.4315 23.299 40.3872 23.095 40.3039 22.9058C40.2206 22.7167 40.0999 22.5463 39.9491 22.405C39.7983 22.2637 39.6205 22.1543 39.4263 22.0834C38.0659 21.522 36.57 21.2 35 21.2ZM25.8 28.8667C24.9536 28.8667 24.2667 29.5536 24.2667 30.4V45.7333C24.2667 46.5797 24.9536 47.2667 25.8 47.2667H44.2C45.0464 47.2667 45.7333 46.5797 45.7333 45.7333V30.4C45.7333 29.5536 45.0464 28.8667 44.2 28.8667H25.8ZM50.2255 29.0104C49.4465 29.0494 48.8 29.7333 48.8 30.5557V45.5776C48.8 46.516 49.6454 47.2753 50.5669 47.0959C54.802 46.2725 58 42.544 58 38.0667C58 33.5893 54.802 29.8593 50.5669 29.0344C50.4517 29.0121 50.3368 29.0048 50.2255 29.0104ZM19.7745 29.0134C19.6632 29.0079 19.5483 29.0149 19.4331 29.0374C15.198 29.8608 12 33.5893 12 38.0667C12 42.544 15.198 46.274 19.4331 47.0989C20.3546 47.2768 21.2 46.5175 21.2 45.5776V30.5557C21.2 29.7346 20.5535 29.0516 19.7745 29.0134ZM40.5853 30.409C40.869 30.3522 41.1333 30.5684 41.1333 30.8582V33.248C41.1333 33.475 40.9723 33.6708 40.75 33.7152L36.5333 34.976V39.8725C36.5333 42.1495 35.2735 44.2 33.0594 44.2C31.5092 44.2 30.4 43.4333 30.4 41.9C30.4 38.5665 35 39.6276 35 38.0667V33.1043C35 32.4127 35.462 31.8073 36.129 31.6249L40.5853 30.409Z" fill="url(#paint0_linear_81_305)"/>
<defs>
<linearGradient id="paint0_linear_81_305" x1="51.8773" y1="40.9536" x2="38.0932" y2="11.5048" gradientUnits="userSpaceOnUse">
<stop offset="0.29" stop-color="#3A77CE"/>
<stop offset="1" stop-color="#0EDDC9"/>
</linearGradient>
</defs>
</svg>
