<svg width="70" height="70" viewBox="0 0 70 70" fill="none" xmlns="http://www.w3.org/2000/svg">
<path d="M36.2344 41.9411L36.2514 54.8616C36.2514 56.1149 35.2773 57.26 33.9955 57.26L27.8827 57.2714C26.6408 57.2714 25.6552 56.4169 25.2906 55.2661L21.5364 55.1522C21.2971 56.4454 20.3229 57.3056 18.9841 57.2942L14.1019 57.2486C12.5922 57.2372 11.8573 55.7845 11.9485 54.4059L13.2758 34.2104C13.5664 27.0437 13.5607 20.0308 13.0366 12.8983C13.0195 12.6305 13.1619 12.2089 13.3157 12.1007C13.4923 11.9811 13.9709 11.9526 14.1361 12.1007C15.1957 13.0464 16.4319 13.5534 17.8277 13.5363C18.329 12.7444 19.1095 12.0836 20.0836 12.0836H25.1368C26.2819 12.0836 27.0339 12.9723 27.6206 13.8155C29.7285 14.0148 30.6799 11.7133 31.5629 12.1292C31.9731 12.3229 31.9959 12.7273 31.9788 13.1546C31.8876 15.2967 32.0699 17.3247 32.3776 19.4611C33.0042 23.8021 33.8929 27.9666 34.9013 32.2392C35.659 35.4523 36.2287 38.5286 36.2344 41.9411ZM17.4118 29.0205L17.4346 15.0118C16.4148 14.9093 15.5432 14.6643 14.6032 14.237C14.7456 17.2279 14.9906 20.0991 15.5318 23.016C16.0559 25.1124 16.6142 27.112 17.4118 29.0205ZM27.8143 25.2434L30.1273 14.6586C29.3126 15.0688 28.5834 15.2739 27.7745 15.3422L27.8143 25.2434ZM33.9499 55.813C34.3544 55.813 34.7703 55.3629 34.7703 55.004L34.7589 41.8841C34.7589 38.6369 34.2006 35.6061 33.4486 32.4671C32.3548 27.9153 31.4774 23.4717 30.7653 18.8401L28.7087 28.3596C27.3415 34.6718 26.6693 41.0011 26.6693 47.467V54.5825C26.6693 55.3117 27.3073 55.8187 28.0023 55.8187H33.9499V55.813ZM23.8892 25.7505C24.1227 25.7505 24.4703 25.3061 24.4873 25.0782V20.9252C24.4873 20.6233 24.1854 20.2586 23.912 20.1618L21.3085 20.1732C20.9325 20.1732 20.6192 20.572 20.6192 20.9366V24.9358C20.6192 25.3802 20.9667 25.7676 21.4167 25.7619L23.8835 25.7505H23.8892ZM19.1095 55.8016C19.7133 55.8016 20.095 55.3117 20.0495 54.7135L18.9727 41.058C18.8303 39.235 18.3746 37.5829 17.896 35.8511C17.0358 32.7292 16.0844 29.7839 14.9564 26.6278L14.569 37.919L13.3955 54.7078C13.3556 55.3174 13.7259 55.7959 14.3355 55.7959H19.1038L19.1095 55.8016ZM23.9063 32.7633C24.1683 32.7633 24.493 32.3019 24.493 32.0569V28.861C24.493 28.5078 24.1569 28.1489 23.8037 28.1489L21.4281 28.1318C21.0008 28.1318 20.6305 28.4508 20.6305 28.8781V32.1766C20.6362 32.4101 21.0521 32.7747 21.2686 32.769H23.912L23.9063 32.7633ZM23.2853 38.1013V35.4352C23.2853 34.9453 22.9606 34.5977 22.4706 34.6262C22.1573 34.6433 21.8212 35.0364 21.8269 35.4238L21.8383 38.0558C21.8383 38.483 22.2143 38.7964 22.6131 38.7793C22.8637 38.7736 23.291 38.4261 23.291 38.0956L23.2853 38.1013Z" fill="url(#paint0_linear_81_280)"/>
<path d="M51.3314 52.0817C50.4768 51.9678 49.7647 51.5861 49.4628 50.686L46.2782 50.6746C46.0731 51.5747 45.23 51.8937 44.5065 52.0931C43.7431 53.8933 43.0709 55.7562 41.4131 56.8842C40.3591 57.602 39.0773 57.2944 38.3538 56.2404C37.7613 55.3802 37.4366 54.3092 37.3227 53.1926C36.9353 49.444 37.5961 45.6727 39.2312 42.3001C39.8407 41.0525 41.1624 39.4118 42.3644 39.4175L53.5759 39.4346C54.7723 39.4346 56.168 41.3943 56.7833 42.7844C58.179 45.9234 58.7886 49.3472 58.5095 52.7938C58.4069 54.0528 58.1107 55.2492 57.4441 56.2347C56.7776 57.2203 55.6952 57.5621 54.6641 57.0437C52.9607 56.1892 52.0321 54.0414 51.3371 52.0817H51.3314ZM49.5881 49.2219C50.1464 48.1451 51.4795 47.8546 52.4423 48.5382C53.3481 49.1877 53.5475 50.5435 52.6929 51.4607C53.1316 53.0673 54.5387 55.8929 55.6781 55.8075C56.4244 55.7505 56.9599 53.8534 57.0568 52.5602C57.2846 49.3928 56.7491 46.2082 55.4274 43.337C54.9717 42.3457 54.4248 41.5538 53.5418 40.8873H42.2676C41.3561 41.5709 40.7921 42.397 40.3307 43.4281C39.0261 46.3221 38.4849 49.5238 38.7526 52.7027C38.8666 54.0813 39.4704 55.9556 40.2395 55.8246C41.3732 55.6309 42.6721 53.0331 43.088 51.5063C42.1765 50.5606 42.3588 49.2219 43.3329 48.5325C44.3071 47.8432 45.549 48.1907 46.1871 49.2333H49.5995L49.5881 49.2219Z" fill="url(#paint1_linear_81_280)"/>
<path d="M31.8026 52.3378H29.4042C29.0168 52.3435 28.6465 52.0131 28.6465 51.5915V43.0975C28.6465 42.6759 28.9427 42.3113 29.37 42.3056L31.7285 42.2942C32.076 42.2942 32.5204 42.5506 32.5204 42.9664V51.5801C32.5204 52.0017 32.19 52.3378 31.8026 52.3378Z" fill="url(#paint2_linear_81_280)"/>
<path d="M43.6742 45.9577C43.4748 45.9577 43.8451 47.2053 43.3267 47.5471C43.133 47.6724 42.5975 47.6724 42.4095 47.5186C42.2329 47.3762 42.1588 46.9546 42.1417 46.6584L42.1076 46.0431C42.0905 45.7583 40.9682 46.2311 40.501 45.5589C40.3529 45.3481 40.4441 44.6531 40.6947 44.5847C41.1505 44.4651 41.6005 44.4651 42.1133 44.4423L42.1987 43.1662C42.2158 42.9269 42.7342 42.6705 42.9678 42.7104C43.2697 42.7617 43.64 43.1434 43.6343 43.4567L43.6115 44.4594L44.7224 44.4708C45.1212 44.4708 45.4288 44.9892 45.3548 45.3139C45.2295 45.8323 44.8307 45.9235 44.2781 45.9406L43.6856 45.952L43.6742 45.9577Z" fill="url(#paint3_linear_81_280)"/>
<path d="M49.5715 48.3104L46.159 48.3218C45.8742 48.3218 45.5893 47.8033 45.6121 47.5527C45.6406 47.1995 45.971 46.8577 46.3641 46.8577H49.4233C49.7367 46.8577 50.0614 47.171 50.1412 47.4387C50.2209 47.7065 49.9361 48.3104 49.5715 48.3161V48.3104Z" fill="url(#paint4_linear_81_280)"/>
<path d="M49.5252 42.7557H46.4489C45.9988 42.7671 45.6456 42.4822 45.6171 42.0892C45.5829 41.5764 45.9191 41.2859 46.4546 41.2859H49.3657C49.7303 41.2859 50.0835 41.6106 50.1405 41.9467C50.186 42.2316 49.8898 42.75 49.5252 42.75V42.7557Z" fill="url(#paint5_linear_81_280)"/>
<path d="M52.9662 42.1688C53.2796 42.2885 53.3764 42.8924 53.2397 43.1088C52.8295 43.7526 51.5534 43.6386 51.2743 43.1373C51.1261 42.8696 51.2458 42.2828 51.5306 42.1688C51.9636 41.9979 52.4763 41.9808 52.9662 42.1688Z" fill="url(#paint6_linear_81_280)"/>
<path d="M50.9266 43.6218C51.3881 43.9807 51.371 45.1429 50.9266 45.4562C50.7215 45.5986 50.2316 45.6043 50.0664 45.4562C49.5936 45.0347 49.6733 43.8839 50.055 43.6161C50.243 43.4851 50.7557 43.4851 50.9266 43.6218Z" fill="url(#paint7_linear_81_280)"/>
<path d="M52.4074 45.5303C52.96 45.5303 53.3075 45.912 53.3018 46.3164C53.2961 46.795 52.8631 47.0684 52.3219 47.0456C52.0257 47.0343 51.5927 46.9659 51.4104 46.8292C51.1997 46.6697 51.1484 46.043 51.3193 45.8493C51.513 45.6271 51.9744 45.5303 52.4017 45.5303H52.4074Z" fill="url(#paint8_linear_81_280)"/>
<path d="M54.3966 43.5759C54.8466 43.8208 54.8637 45.0856 54.482 45.4331C54.3111 45.5869 53.8041 45.6097 53.5819 45.4843C53.1546 45.2394 53.1318 44.0088 53.5021 43.6556C53.6674 43.4961 54.1915 43.4619 54.3966 43.5759Z" fill="url(#paint9_linear_81_280)"/>
<defs>
<linearGradient id="paint0_linear_81_280" x1="33.0157" y1="48.414" x2="8.36367" y2="28.6266" gradientUnits="userSpaceOnUse">
<stop offset="0.29" stop-color="#3A77CE"/>
<stop offset="1" stop-color="#0EDDC9"/>
</linearGradient>
<linearGradient id="paint1_linear_81_280" x1="55.7325" y1="53.7814" x2="47.2458" y2="38.6077" gradientUnits="userSpaceOnUse">
<stop offset="0.29" stop-color="#3A77CE"/>
<stop offset="1" stop-color="#0EDDC9"/>
</linearGradient>
<linearGradient id="paint2_linear_81_280" x1="32.0048" y1="50.3687" x2="27.1581" y2="47.5731" gradientUnits="userSpaceOnUse">
<stop offset="0.29" stop-color="#3A77CE"/>
<stop offset="1" stop-color="#0EDDC9"/>
</linearGradient>
<linearGradient id="paint3_linear_81_280" x1="44.7088" y1="46.6709" x2="42.1691" y2="42.8693" gradientUnits="userSpaceOnUse">
<stop offset="0.29" stop-color="#3A77CE"/>
<stop offset="1" stop-color="#0EDDC9"/>
</linearGradient>
<linearGradient id="paint4_linear_81_280" x1="49.5499" y1="48.0347" x2="49.2137" y2="46.4748" gradientUnits="userSpaceOnUse">
<stop offset="0.29" stop-color="#3A77CE"/>
<stop offset="1" stop-color="#0EDDC9"/>
</linearGradient>
<linearGradient id="paint5_linear_81_280" x1="49.5421" y1="42.4678" x2="49.2024" y2="40.9024" gradientUnits="userSpaceOnUse">
<stop offset="0.29" stop-color="#3A77CE"/>
<stop offset="1" stop-color="#0EDDC9"/>
</linearGradient>
<linearGradient id="paint6_linear_81_280" x1="53.022" y1="43.2553" x2="52.3562" y2="41.8854" gradientUnits="userSpaceOnUse">
<stop offset="0.29" stop-color="#3A77CE"/>
<stop offset="1" stop-color="#0EDDC9"/>
</linearGradient>
<linearGradient id="paint7_linear_81_280" x1="51.0632" y1="45.1639" x2="49.929" y2="43.8988" gradientUnits="userSpaceOnUse">
<stop offset="0.29" stop-color="#3A77CE"/>
<stop offset="1" stop-color="#0EDDC9"/>
</linearGradient>
<linearGradient id="paint8_linear_81_280" x1="53.0244" y1="46.7496" x2="52.3592" y2="45.3821" gradientUnits="userSpaceOnUse">
<stop offset="0.29" stop-color="#3A77CE"/>
<stop offset="1" stop-color="#0EDDC9"/>
</linearGradient>
<linearGradient id="paint9_linear_81_280" x1="54.5513" y1="45.162" x2="53.41" y2="43.9082" gradientUnits="userSpaceOnUse">
<stop offset="0.29" stop-color="#3A77CE"/>
<stop offset="1" stop-color="#0EDDC9"/>
</linearGradient>
</defs>
</svg>
