<svg width="56" height="56" viewBox="0 0 56 56" fill="none" xmlns="http://www.w3.org/2000/svg">
<path d="M56 28.006C56 43.4748 43.4728 56 28.0085 56C12.5422 56 0 43.4748 0 28.006C0 12.5372 12.5422 0 28.0085 0C43.473 0 56 12.5372 56 28.006Z" fill="black" fill-opacity="0.05"/>
<g clip-path="url(#clip0_81_683)">
<path d="M28.0004 13.3003C21.0414 13.3003 15.4004 18.9413 15.4004 25.9003C15.4004 29.3785 16.8097 32.5279 19.089 34.8079C21.369 37.0891 26.7404 40.3903 27.0554 43.8553C27.1026 44.3748 27.4788 44.8003 28.0004 44.8003C28.522 44.8003 28.8982 44.3748 28.9454 43.8553C29.2604 40.3903 34.6318 37.0891 36.9117 34.8079C39.1911 32.5279 40.6004 29.3785 40.6004 25.9003C40.6004 18.9413 34.9594 13.3003 28.0004 13.3003Z" fill="#FF4433"/>
<path d="M27.9998 30.3102C30.4354 30.3102 32.4098 28.3358 32.4098 25.9002C32.4098 23.4647 30.4354 21.4902 27.9998 21.4902C25.5643 21.4902 23.5898 23.4647 23.5898 25.9002C23.5898 28.3358 25.5643 30.3102 27.9998 30.3102Z" fill="white"/>
</g>
<defs>
<clipPath id="clip0_81_683">
<rect width="33.6" height="33.6" fill="white" transform="translate(11.1992 11.2002)"/>
</clipPath>
</defs>
</svg>
