<svg width="56" height="56" viewBox="0 0 56 56" fill="none" xmlns="http://www.w3.org/2000/svg">
<path d="M56 28.006C56 43.4748 43.4728 56 28.0085 56C12.5422 56 0 43.4748 0 28.006C0 12.5372 12.5422 0 28.0085 0C43.473 0 56 12.5372 56 28.006Z" fill="black" fill-opacity="0.05"/>
<g clip-path="url(#clip0_81_714)">
<path d="M22.3972 40.9501C27.0197 40.9501 30.7671 37.1957 30.7671 32.5644C30.7671 27.9332 27.0197 24.1788 22.3972 24.1788C17.7747 24.1788 14.0273 27.9332 14.0273 32.5644C14.0273 37.1957 17.7747 40.9501 22.3972 40.9501Z" fill="#04E061"/>
<path d="M36.917 39.8919C39.7102 39.8919 41.9745 37.6232 41.9745 34.8247C41.9745 32.0263 39.7102 29.7577 36.917 29.7577C34.1238 29.7577 31.8594 32.0263 31.8594 34.8247C31.8594 37.6232 34.1238 39.8919 36.917 39.8919Z" fill="#FF4053"/>
<path d="M23.9979 23.0857C25.7264 23.0857 27.1277 21.6818 27.1277 19.9501C27.1277 18.2183 25.7264 16.8145 23.9979 16.8145C22.2694 16.8145 20.8682 18.2183 20.8682 19.9501C20.8682 21.6818 22.2694 23.0857 23.9979 23.0857Z" fill="#965EEB"/>
<path d="M34.9525 28.6635C38.7108 28.6635 41.7575 25.611 41.7575 21.8457C41.7575 18.0803 38.7108 15.0278 34.9525 15.0278C31.1941 15.0278 28.1475 18.0803 28.1475 21.8457C28.1475 25.611 31.1941 28.6635 34.9525 28.6635Z" fill="#00AAFF"/>
</g>
<defs>
<clipPath id="clip0_81_714">
<rect width="28" height="26" fill="white" transform="translate(14 15)"/>
</clipPath>
</defs>
</svg>
