<svg width="16" height="16" viewBox="0 0 16 16" fill="none" xmlns="http://www.w3.org/2000/svg">
<path d="M5.9921 13H10.0079C10.9191 13 11.4073 12.5582 11.4073 11.847V9.43319H14.0497C14.5834 9.43319 15 9.16379 15 8.75431C15 8.50108 14.8438 8.3125 14.6095 8.11853L8.80381 3.32866C8.54998 3.11853 8.28963 3 7.99675 3C7.71037 3 7.44351 3.11853 7.19619 3.32866L1.39052 8.11853C1.13668 8.32328 1 8.50108 1 8.75431C1 9.16379 1.41655 9.43319 1.94375 9.43319H4.59275V11.847C4.59275 12.5582 5.08089 13 5.9921 13ZM6.09623 12.1649C5.84891 12.1649 5.67968 12.0248 5.67968 11.8254V8.8028C5.67968 8.6681 5.62111 8.61961 5.4649 8.61961H2.45793C2.41237 8.61961 2.38633 8.60345 2.38633 8.57651C2.38633 8.55496 2.39935 8.53879 2.42538 8.51185L7.86006 4.03987C7.91213 3.99677 7.95769 3.98599 7.99675 3.98599C8.04231 3.98599 8.08787 3.99677 8.13343 4.03987L13.5681 8.51185C13.6007 8.53879 13.6072 8.55496 13.6072 8.57651C13.6072 8.60345 13.5876 8.61961 13.5356 8.61961H10.5351C10.3789 8.61961 10.3203 8.6681 10.3203 8.8028V11.8254C10.3203 12.0194 10.1446 12.1649 9.90377 12.1649H6.09623Z" fill="#0EDDC9"/>
</svg>
