<svg width="35" height="35" viewBox="0 0 35 35" fill="none" xmlns="http://www.w3.org/2000/svg">
<path d="M2.33367 2.33312C2.17908 2.33094 2.02559 2.3595 1.88212 2.41715C1.73866 2.4748 1.60809 2.56039 1.49799 2.66894C1.38789 2.77749 1.30046 2.90684 1.24079 3.04947C1.18112 3.19211 1.15039 3.34518 1.15039 3.49979C1.15039 3.6544 1.18112 3.80747 1.24079 3.95011C1.30046 4.09274 1.38789 4.22209 1.49799 4.33064C1.60809 4.4392 1.73866 4.52478 1.88212 4.58243C2.02559 4.64008 2.17908 4.66864 2.33367 4.66646H4.52573C4.78928 4.66646 5.0092 4.8315 5.084 5.08573L10.056 21.9887C10.4924 23.4724 11.8646 24.4998 13.4124 24.4998H26.2184C27.7916 24.4998 29.1806 23.4366 29.5954 21.9204L32.626 10.8074C32.6733 10.6343 32.68 10.4526 32.6456 10.2765C32.6113 10.1003 32.5367 9.93448 32.4278 9.79184C32.3189 9.6492 32.1786 9.5336 32.0177 9.45405C31.8569 9.37449 31.6798 9.33311 31.5003 9.33312H8.76629L7.32391 4.4272H7.32163C6.95776 3.19043 5.81384 2.33312 4.52573 2.33312H2.33367ZM14.0003 26.8331C13.3815 26.8331 12.788 27.079 12.3504 27.5165C11.9128 27.9541 11.667 28.5476 11.667 29.1665C11.667 29.7853 11.9128 30.3788 12.3504 30.8164C12.788 31.254 13.3815 31.4998 14.0003 31.4998C14.6192 31.4998 15.2127 31.254 15.6503 30.8164C16.0878 30.3788 16.3337 29.7853 16.3337 29.1665C16.3337 28.5476 16.0878 27.9541 15.6503 27.5165C15.2127 27.079 14.6192 26.8331 14.0003 26.8331ZM25.667 26.8331C25.0482 26.8331 24.4547 27.079 24.0171 27.5165C23.5795 27.9541 23.3337 28.5476 23.3337 29.1665C23.3337 29.7853 23.5795 30.3788 24.0171 30.8164C24.4547 31.254 25.0482 31.4998 25.667 31.4998C26.2858 31.4998 26.8793 31.254 27.3169 30.8164C27.7545 30.3788 28.0003 29.7853 28.0003 29.1665C28.0003 28.5476 27.7545 27.9541 27.3169 27.5165C26.8793 27.079 26.2858 26.8331 25.667 26.8331Z" fill="white"/>
</svg>
