<svg width="17" height="17" viewBox="0 0 17 17" fill="none" xmlns="http://www.w3.org/2000/svg">
<path d="M7.46605 12C7.79098 12 8.06675 11.876 8.26363 11.6435L12.7636 6.06202C12.8719 5.91473 13 5.73643 13 5.56589C13 5.2248 12.6061 5 12.2023 5C11.9464 5 11.7002 5.11628 11.5131 5.34884L7.42664 10.5116L5.48686 8.53486C5.25054 8.2868 5.03391 8.21708 4.76805 8.21708C4.33479 8.21708 4 8.48836 4 8.83724C4 9.00003 4.08862 9.17057 4.22647 9.31782L6.62907 11.6435C6.87527 11.8993 7.14112 12 7.46605 12Z" fill="white" fill-opacity="0.85"/>
</svg>
