<svg width="25" height="25" viewBox="0 0 25 25" fill="none" xmlns="http://www.w3.org/2000/svg">
<path fill-rule="evenodd" clip-rule="evenodd" d="M12.7364 23.4372C10.5773 23.4372 9.574 23.1207 7.82997 21.8545C6.72682 23.2789 3.23352 24.3922 3.08118 22.4876C3.08118 21.0578 2.76599 19.8496 2.40878 18.5306C1.98328 16.9057 1.5 15.096 1.5 12.4739C1.5 6.21139 6.61651 1.5 12.6786 1.5C18.7459 1.5 23.4999 6.44353 23.4999 12.5319C23.5203 18.5262 18.7046 23.4052 12.7364 23.4372ZM12.8257 6.91308C9.87342 6.76008 7.57257 8.81241 7.06302 12.0307C6.64277 14.695 7.38871 17.9397 8.02434 18.1086C8.32902 18.1824 9.09597 17.5599 9.574 17.0798C10.3644 17.6282 11.2849 17.9576 12.2426 18.0347C15.3016 18.1825 17.9154 15.8435 18.1208 12.7746C18.2403 9.6992 15.8851 7.09435 12.8257 6.91836L12.8257 6.91308Z" fill="#0EDDC9"/>
</svg>
