<svg width="36" height="36" viewBox="0 0 36 36" fill="none" xmlns="http://www.w3.org/2000/svg">
<path d="M17.9997 4.7998C10.0612 4.7998 3.59973 11.2612 3.59973 19.1998V25.1998C3.59748 25.3588 3.62686 25.5167 3.68615 25.6643C3.74545 25.8118 3.83348 25.9461 3.94514 26.0594C4.05679 26.1726 4.18984 26.2625 4.33655 26.3239C4.48325 26.3853 4.6407 26.4169 4.79973 26.4169C4.95876 26.4169 5.1162 26.3853 5.26291 26.3239C5.40962 26.2625 5.54267 26.1726 5.65432 26.0594C5.76597 25.9461 5.85401 25.8118 5.9133 25.6643C5.9726 25.5167 6.00198 25.3588 5.99973 25.1998V19.1998C5.99973 12.5584 11.3583 7.1998 17.9997 7.1998C24.6412 7.1998 29.9997 12.5584 29.9997 19.1998V25.1998C29.9975 25.3588 30.0269 25.5167 30.0862 25.6643C30.1454 25.8118 30.2335 25.9461 30.3451 26.0594C30.4568 26.1726 30.5898 26.2625 30.7365 26.3239C30.8833 26.3853 31.0407 26.4169 31.1997 26.4169C31.3588 26.4169 31.5162 26.3853 31.6629 26.3239C31.8096 26.2625 31.9427 26.1726 32.0543 26.0594C32.166 25.9461 32.254 25.8118 32.3133 25.6643C32.3726 25.5167 32.402 25.3588 32.3997 25.1998V19.1998C32.3997 11.2612 25.9383 4.7998 17.9997 4.7998ZM9.59973 20.3998C8.93733 20.3998 8.39973 20.9374 8.39973 21.5998V29.9998C8.39973 30.6622 8.93733 31.1998 9.59973 31.1998H10.7997C12.1257 31.1998 13.1997 30.1258 13.1997 28.7998V22.7998C13.1997 21.4738 12.1257 20.3998 10.7997 20.3998H9.59973ZM25.1997 20.3998C23.8737 20.3998 22.7997 21.4738 22.7997 22.7998V28.7998C22.7997 30.1258 23.8737 31.1998 25.1997 31.1998H26.3997C27.0621 31.1998 27.5997 30.6622 27.5997 29.9998V21.5998C27.5997 20.9374 27.0621 20.3998 26.3997 20.3998H25.1997Z" fill="white"/>
</svg>
