<svg width="20" height="20" viewBox="0 0 20 20" fill="none" xmlns="http://www.w3.org/2000/svg">
<path d="M14.08 2.3999C14.472 2.3999 14.6681 2.3999 14.8178 2.47838C14.9495 2.54741 15.0566 2.65755 15.1237 2.79303C15.2 2.94705 15.2 3.14867 15.2 3.5519V4.1279C15.2 4.53114 15.2 4.73276 15.1237 4.88678C15.0566 5.02225 14.9495 5.1324 14.8178 5.20143C14.6681 5.2799 14.472 5.2799 14.08 5.2799L5.12 5.2799C4.72796 5.2799 4.53194 5.2799 4.38221 5.20143C4.25049 5.1324 4.14341 5.02225 4.0763 4.88678C4 4.73276 4 4.53114 4 4.1279L4 3.5519C4 3.14866 4 2.94705 4.0763 2.79303C4.14341 2.65755 4.25049 2.54741 4.38221 2.47838C4.53194 2.3999 4.72796 2.3999 5.12 2.3999L14.08 2.3999Z" fill="#0A3C87"/>
<path d="M14.08 8.1599C14.472 8.1599 14.6681 8.1599 14.8178 8.23838C14.9495 8.30741 15.0566 8.41755 15.1237 8.55303C15.2 8.70705 15.2 8.90867 15.2 9.3119V9.8879C15.2 10.2911 15.2 10.4928 15.1237 10.6468C15.0566 10.7823 14.9495 10.8924 14.8178 10.9614C14.6681 11.0399 14.472 11.0399 14.08 11.0399L5.12 11.0399C4.72796 11.0399 4.53194 11.0399 4.38221 10.9614C4.25049 10.8924 4.14341 10.7823 4.0763 10.6468C4 10.4928 4 10.2911 4 9.8879L4 9.3119C4 8.90866 4 8.70705 4.0763 8.55303C4.14341 8.41755 4.25049 8.30741 4.38221 8.23838C4.53194 8.1599 4.72796 8.1599 5.12 8.1599L14.08 8.1599Z" fill="#0A3C87"/>
<path d="M14.08 13.9199C14.472 13.9199 14.6681 13.9199 14.8178 13.9984C14.9495 14.0674 15.0566 14.1776 15.1237 14.313C15.2 14.467 15.2 14.6687 15.2 15.0719V15.6479C15.2 16.0511 15.2 16.2528 15.1237 16.4068C15.0566 16.5423 14.9495 16.6524 14.8178 16.7214C14.6681 16.7999 14.472 16.7999 14.08 16.7999H5.12C4.72796 16.7999 4.53194 16.7999 4.38221 16.7214C4.25049 16.6524 4.14341 16.5423 4.0763 16.4068C4 16.2528 4 16.0511 4 15.6479L4 15.0719C4 14.6687 4 14.467 4.0763 14.313C4.14341 14.1776 4.25049 14.0674 4.38221 13.9984C4.53194 13.9199 4.72796 13.9199 5.12 13.9199H14.08Z" fill="#0A3C87"/>
</svg>
