<svg width="36" height="36" viewBox="0 0 36 36" fill="none" xmlns="http://www.w3.org/2000/svg">
<path fill-rule="evenodd" clip-rule="evenodd" d="M18.2793 30.9258C15.7278 30.9258 14.542 30.5517 12.4809 29.0553C11.1772 30.7388 7.0487 32.0544 6.86867 29.8035C6.86867 28.1137 6.49617 26.6859 6.07402 25.1271C5.57115 23.2067 5 21.068 5 17.9691C5 10.568 11.0468 5 18.211 5C25.3815 5 30.9999 10.8423 30.9999 18.0377C31.024 25.1218 25.3327 30.888 18.2793 30.9258ZM18.3849 11.3973C14.8959 11.2165 12.1767 13.6419 11.5745 17.4454C11.0778 20.5941 11.9594 24.4288 12.7106 24.6283C13.0707 24.7156 13.977 23.9798 14.542 23.4124C15.4762 24.0606 16.564 24.4499 17.6958 24.541C21.3109 24.7157 24.4 21.9514 24.6427 18.3245C24.784 14.69 22.0006 11.6115 18.3849 11.4035L18.3849 11.3973Z" fill="white"/>
</svg>
