<svg width="16" height="16" viewBox="0 0 16 16" fill="none" xmlns="http://www.w3.org/2000/svg">
<path d="M2.28899 8.10259C2.31426 8.09011 2.33953 8.07825 2.36416 8.06701C2.79234 7.87096 3.2262 7.68739 3.65943 7.50382C3.6828 7.50382 3.72194 7.47697 3.74405 7.46823C3.77752 7.45387 3.811 7.44014 3.84447 7.42578C3.90888 7.3983 3.9733 7.37145 4.03709 7.34398C4.16592 7.28966 4.29411 7.23534 4.42294 7.18102C4.67998 7.07238 4.93701 6.96374 5.19404 6.85447C5.70811 6.63719 6.22282 6.41929 6.73689 6.20201C7.25096 5.98473 7.76565 5.76681 8.27972 5.54953C8.79378 5.33225 9.30848 5.11435 9.82255 4.89707C10.3366 4.67978 10.8513 4.46187 11.3654 4.24459C11.4797 4.19589 11.6035 4.12347 11.726 4.10224C11.8289 4.08413 11.9293 4.04917 12.0329 4.02981C12.2293 3.99297 12.4459 3.97799 12.6341 4.05853C12.6992 4.08663 12.7592 4.12596 12.8091 4.17529C13.0478 4.4088 13.0143 4.79217 12.9638 5.12059C12.612 7.40954 12.2603 9.69911 11.9079 11.9881C11.8599 12.3021 11.7942 12.6468 11.5435 12.8453C11.3313 13.0133 11.0294 13.032 10.7673 12.9608C10.5052 12.889 10.2741 12.7386 10.0474 12.5906C9.10702 11.975 8.16604 11.3593 7.22569 10.7437C7.00213 10.5976 6.75331 10.4065 6.75584 10.1412C6.7571 9.98133 6.85372 9.83898 6.95223 9.71223C7.76944 8.65829 8.94851 7.93401 9.82571 6.92877C9.94949 6.78704 10.0467 6.53105 9.87686 6.44926C9.77582 6.40056 9.65961 6.46674 9.5674 6.5298C8.40791 7.32588 7.24906 8.12257 6.08957 8.91865C5.71128 9.17839 5.31468 9.44562 4.85871 9.50931C4.45074 9.56675 4.04025 9.45437 3.64554 9.33948C3.31462 9.24333 2.98431 9.14468 2.65529 9.0429C2.48035 8.98921 2.29973 8.93113 2.16458 8.80938C2.02944 8.68763 1.95177 8.48284 2.03324 8.3205C2.08439 8.21873 2.18354 8.15442 2.28775 8.10197L2.28899 8.10259Z" fill="white"/>
</svg>
