<svg width="16" height="16" viewBox="0 0 16 16" fill="none" xmlns="http://www.w3.org/2000/svg">
<path fill-rule="evenodd" clip-rule="evenodd" d="M8.11818 13.4686C7.03867 13.4686 6.537 13.3103 5.66499 12.6772C5.11341 13.3895 3.36676 13.9461 3.29059 12.9938C3.29059 12.2789 3.133 11.6748 2.95439 11.0153C2.74164 10.2028 2.5 9.29801 2.5 7.98694C2.5 4.85569 5.05825 2.5 8.08929 2.5C11.1229 2.5 13.5 4.97176 13.5 8.01596C13.5101 11.0131 11.1023 13.4526 8.11818 13.4686ZM8.16283 5.20654C6.68671 5.13004 5.53628 6.1562 5.28151 7.76536C5.07139 9.09752 5.44436 10.7199 5.76217 10.8043C5.91451 10.8412 6.29798 10.5299 6.537 10.2899C6.93222 10.5641 7.39246 10.7288 7.87128 10.7673C9.40078 10.8412 10.7077 9.67177 10.8104 8.13731C10.8702 6.5996 9.69254 5.29718 8.16283 5.20918L8.16283 5.20654Z" fill="white"/>
</svg>
