<svg width="24" height="24" viewBox="0 0 24 24" fill="none" xmlns="http://www.w3.org/2000/svg">
<path d="M12 1.5C7.0293 1.5 3 5.5293 3 10.5C3 12.9845 4.00665 15.234 5.63475 16.8626C7.2633 18.492 11.1 20.85 11.325 23.325C11.3587 23.6961 11.6274 24 12 24C12.3726 24 12.6413 23.6961 12.675 23.325C12.9 20.85 16.7367 18.492 18.3652 16.8626C19.9933 15.234 21 12.9845 21 10.5C21 5.5293 16.9707 1.5 12 1.5Z" fill="#FF4433"/>
<path d="M12.0016 13.6496C13.7413 13.6496 15.1515 12.2393 15.1515 10.4996C15.1515 8.75991 13.7413 7.34961 12.0016 7.34961C10.2619 7.34961 8.85156 8.75991 8.85156 10.4996C8.85156 12.2393 10.2619 13.6496 12.0016 13.6496Z" fill="white"/>
</svg>
