<svg width="138" height="60" viewBox="0 0 138 60" fill="none" xmlns="http://www.w3.org/2000/svg">
<path d="M30.7572 33.387C30.7572 36.0069 28.6339 38.1028 25.9797 38.1028C23.3255 38.1028 21.2022 36.0069 21.2022 33.387C21.2022 30.7672 23.3255 28.6713 25.9797 28.6713H30.7572V33.387ZM36.0656 14H30.7572V23.5363C28.9524 23.5363 27.1476 23.5363 25.9797 23.5363C20.459 23.5363 16 27.9377 16 33.387C16 38.8364 20.459 43.2378 25.9797 43.2378C31.5004 43.2378 35.9594 38.8364 35.9594 33.387C35.9594 30.6624 35.9594 23.5363 35.9594 23.5363L36.0656 14Z" fill="#0A3C87"/>
<path d="M88.8315 38.1029C91.4857 38.1029 93.6091 36.007 93.6091 33.3871C93.6091 30.7673 91.4857 28.6714 88.8315 28.6714C86.1773 28.6714 84.054 30.7673 84.054 33.3871C84.1602 36.007 86.2835 38.1029 88.8315 38.1029ZM78.958 33.3871C78.958 27.9378 83.417 23.5364 88.9377 23.5364C94.4584 23.5364 98.9174 27.9378 98.9174 33.3871C98.9174 38.8365 94.4584 43.2379 88.9377 43.2379C83.417 43.2379 78.958 38.8365 78.958 33.3871Z" fill="#0A3C87"/>
<path d="M115.585 33.3871C115.585 30.8721 113.462 28.7762 110.914 28.7762C108.366 28.7762 106.243 30.8721 106.243 33.3871C106.243 34.6447 106.243 42.8187 106.243 42.8187C103.589 42.8187 101.041 42.8187 101.041 42.8187C101.041 42.8187 101.041 36.1118 101.041 33.3871C101.041 27.9378 105.5 23.5364 111.02 23.5364C116.541 23.5364 121 27.9378 121 33.3871C121 36.1118 121 42.8187 121 42.8187C121 42.8187 118.452 42.8187 115.798 42.8187C115.585 42.8187 115.585 34.6447 115.585 33.3871Z" fill="#0A3C87"/>
<path d="M66.7488 30.0336C66.0056 29.5096 66.2179 28.6713 67.4919 28.3569C69.0844 27.9377 71.8448 28.2521 74.1805 29.3L76.6223 25.9466C75.5606 25.1082 73.225 23.9555 69.8276 23.7459C69.8276 23.7459 64.0946 23.0123 61.7589 27.3089C61.7589 27.3089 59.7417 31.2911 63.7761 33.8062C66.2179 35.2733 70.4646 35.9021 71.8448 36.5309C72.9065 37.1597 72.588 38.3124 70.9954 38.6268C68.2351 39.2556 64.6254 37.6836 63.4576 36.8453L60.9096 40.3035C62.6082 41.561 64.7316 42.7138 68.1289 43.2378C68.1289 43.2378 73.5435 44.1809 76.5161 40.5131C77.047 39.8843 79.4888 35.3781 74.6051 32.7583C72.0571 31.3959 68.0228 30.7672 66.7488 30.0336Z" fill="#0A3C87"/>
<path d="M42.3295 46.5912C42.5418 46.696 44.9836 48.3727 47.3193 48.3727C53.0524 48.4775 53.3709 42.609 53.3709 41.2467C52.3092 42.3994 50.0797 43.133 48.6995 43.133C43.1788 43.133 38.8259 38.9412 38.8259 33.4918C38.8259 30.7672 38.8259 23.9555 38.8259 23.9555C38.8259 23.9555 41.374 23.9555 44.0281 23.9555C44.0281 23.9555 44.0281 32.3391 44.0281 33.4918C44.0281 36.0069 46.1515 38.1028 48.6995 38.1028C51.2475 38.1028 53.3709 36.0069 53.3709 33.4918C53.3709 32.4439 53.3709 23.9555 53.3709 23.9555C56.025 23.9555 58.573 23.9555 58.573 23.9555V33.4918C58.573 41.9802 58.9977 50.6782 50.6105 52.6693C44.3466 54.1364 39.8876 50.259 39.5691 50.0494L42.3295 46.5912Z" fill="#0A3C87"/>
</svg>
