<svg width="138" height="60" viewBox="0 0 138 60" fill="none" xmlns="http://www.w3.org/2000/svg">
<path fill-rule="evenodd" clip-rule="evenodd" d="M33.2931 14C33.603 16.0044 32.7463 17.968 31.6163 19.3573C30.4073 20.8476 28.3234 22.0001 26.3043 21.94C25.9357 20.021 26.8795 18.0438 28.0278 16.7146C29.2874 15.2477 31.4462 14.1222 33.2931 14ZM39.3584 42.2129C40.3994 40.6936 40.7882 39.9271 41.5962 38.2118C35.7192 36.0833 34.7776 28.1259 40.5937 25.0717C38.8197 22.9529 36.3268 21.7246 33.9736 21.7246C32.2779 21.7246 31.1162 22.146 30.0601 22.5291C29.18 22.8484 28.3731 23.141 27.3919 23.141C26.3315 23.141 25.3924 22.8204 24.4092 22.4846C23.3287 22.1157 22.1949 21.7285 20.7879 21.7285C18.1471 21.7285 15.3363 23.2653 13.5541 25.8925C11.049 29.5928 11.4763 36.549 15.5387 42.4748C16.9908 44.5957 18.9308 46.9785 21.4683 46.9998C22.5212 47.0097 23.2219 46.7105 23.9801 46.3866C24.848 46.0159 25.7911 45.6129 27.4243 45.6047C29.067 45.5953 29.9953 46.0031 30.8517 46.3793C31.5904 46.7038 32.2755 47.0048 33.3195 46.994C35.8589 46.9746 37.9064 44.3337 39.3584 42.2129Z" fill="#0A3C87"/>
<path d="M69.3626 26.5629H71.8242L72.0605 28.4631C74.8471 25.2042 79.5339 25.2992 82.1629 28.7007C86.8694 34.8004 81.0502 46.0689 73.3996 40.9572C72.5332 40.3777 72.5922 39.532 71.8144 39.399V47H69.3528V26.5724L69.3626 26.5629ZM73.439 38.7815C73.7049 39.0475 75.2508 39.7221 75.6446 39.7791C83.1377 40.8907 82.3893 25.7838 74.4926 28.9002C71.2138 30.1924 71.2827 36.6627 73.439 38.7815Z" fill="#0A3C87"/>
<path d="M87.5784 26.5629H90.04L90.2763 28.4631C93.0628 25.2042 97.7496 25.2992 100.379 28.7007C105.085 34.8004 99.266 46.0689 91.6154 40.9572C90.7489 40.3777 90.808 39.532 90.0301 39.399V47H87.5685V26.5724L87.5784 26.5629ZM91.6548 38.7815C91.9206 39.0475 93.4665 39.7221 93.8603 39.7791C101.353 40.8907 100.605 25.7838 92.7083 28.9002C89.4295 30.1924 89.4984 36.6627 91.6548 38.7815Z" fill="#0A3C87"/>
<path d="M58.9647 21.3943L66.3987 41.7649L63.5137 41.6984L61.1604 36.1306L53.047 36.3492L51.0482 41.6889L48.1731 41.7649L55.6071 21.3848H58.945L58.9647 21.3943ZM60.5007 33.6888C59.5948 31.0285 58.9056 28.1971 57.7831 25.6128C57.5862 25.1568 57.7339 24.5202 57.0545 24.6627L54.1006 33.6793H60.5007V33.6888Z" fill="#0A3C87"/>
<path d="M125.979 35.114H114.656C114.35 39.114 118.939 40.7958 122.188 38.9335C122.995 38.468 123.074 36.7672 125.487 37.4893C124.423 43.9977 114.321 43.4656 112.302 37.6224C107.803 24.6437 126.717 21.0237 125.979 35.114ZM114.656 32.7387H123.025C122.73 27.0095 115.296 27.1045 114.656 32.7387Z" fill="#0A3C87"/>
<path d="M108.748 20.3871H105.794V41.7648H108.748V20.3871Z" fill="#0A3C87"/>
</svg>
