<svg width="222" height="60" viewBox="0 0 222 60" fill="none" xmlns="http://www.w3.org/2000/svg">
<path d="M44.8539 30.3487V18.7684C44.8539 17.2334 40.778 17.7375 40.778 18.0872V43.0644L35.7965 41.702V14C41.6611 15.8074 50.8997 16.1208 51.2258 24.2134C51.3843 28.1008 49.1788 32.0517 44.8539 30.3487Z" fill="#0A3C87"/>
<path d="M41.6884 43.9727C41.8695 43.0916 41.3895 40.4304 41.7382 39.94C42.1277 39.395 52.983 37.0063 54.3778 35.5758L54.1016 34.4314C49.7359 34.1634 45.8593 36.7111 41.6884 37.6148C41.8605 36.6248 41.2763 34.6403 41.9556 33.9318C44.3513 31.4341 63.0865 31.2706 60.0206 37.1562C59.2869 38.564 44.2924 43.2597 41.6884 43.9727Z" fill="#0A3C87"/>
<path d="M83.5743 20.812C88.2072 21.7657 88.0849 31.1117 83.8234 32.415C82.2474 32.8964 77.2296 32.8646 79.272 30.8074C79.9287 30.1444 84.6929 32.356 83.8098 25.5713C83.1984 20.8665 77.4606 22.7148 77.4606 23.3097V39.8855L74.2905 39.2043V20.812C77.0077 21.1935 81.0518 20.2943 83.5743 20.812Z" fill="#0A3C87"/>
<path d="M112.264 25.4214C112.975 25.8437 114.433 33.523 115.945 34.4358C116.761 33.3051 118.785 25.6847 119.17 25.4077C119.614 25.0898 121.543 25.5076 122.286 25.3578C120.85 27.7238 114.908 46.3341 113.831 46.7155C108.903 48.4639 113.763 41.6792 113.672 39.2633C113.55 36.0616 109.062 28.6139 109.166 26.0117C109.211 24.8537 111.956 25.2352 112.259 25.4168L112.264 25.4214Z" fill="#0A3C87"/>
<path d="M106.897 25.3533V39.8854H103.727V27.1698C97.1695 24.1861 97.1559 36.9881 99.5063 37.9917C99.9637 38.187 103.836 37.9009 101.92 39.8809C101.621 40.1852 98.3515 39.7628 97.5816 39.4631C93.0665 37.7056 94.9504 25.3533 98.9719 25.3533H106.897Z" fill="#0A3C87"/>
<path d="M157.619 25.3533V39.8854L154.449 39.2042V27.1698C148.054 24.3678 148.453 37.038 150.694 37.9735C151.5 38.3096 153.982 37.5149 153.085 39.1997C152.243 40.7892 147.089 40.0444 146.397 37.2878C145.704 34.5312 145.885 25.3533 150.146 25.3533H157.619Z" fill="#0A3C87"/>
<path d="M202 39.8854H198.83V30.1216C198.83 27.1062 195.737 26.8973 193.395 27.1698V39.8854H190.225V25.3533H198.151C199.509 25.3533 202 29.2315 202 30.5758V39.8854Z" fill="#0A3C87"/>
<path d="M180.144 25.4668C190.492 23.7229 190.139 39.395 182.228 39.8536C173.338 40.3668 173.609 26.5703 180.144 25.4668ZM181.05 27.2515C178.048 27.8873 178.251 35.9663 179.827 37.365C185.099 42.0607 186.942 26.0027 181.05 27.2515Z" fill="#0A3C87"/>
<path d="M134.069 20.812V22.6239C131.556 22.851 127.177 21.4568 126.828 25.1716C126.402 29.7084 131.302 28.1189 133.349 29.4813C136.288 31.4432 135.428 39.8854 131.126 39.8854H124.559V38.0735C127.149 37.86 131.144 39.1679 131.773 35.5394C132.729 30.0626 128.535 32.0244 125.954 30.5394C122.222 28.3914 124.17 20.812 127.05 20.812H134.069Z" fill="#0A3C87"/>
<path d="M34.3698 33.9136C34.0936 34.3814 21.9113 37.3105 26.9835 38.5276C29.515 39.1361 31.9832 36.8428 34.4377 36.7111C36.0907 42.0289 29.7641 41.0798 26.1276 40.7347C8.28447 39.0362 28.9218 31.7247 34.2204 30.3578C34.5464 30.4622 34.6008 33.5276 34.3698 33.9182V33.9136Z" fill="#0A3C87"/>
<path d="M137.692 23.0827C137.805 22.9691 140.754 22.9646 140.867 23.0827C141.034 23.2507 140.695 25.1898 140.862 25.3579C141.053 25.5531 146.795 24.7902 144.49 27.1698C144.309 27.356 140.867 26.9927 140.867 27.1698V36.9336C140.867 37.8964 145.319 38.0962 143.584 39.8809C142.597 40.8982 137.697 38.7547 137.697 36.9336C137.697 35.1126 137.203 23.5686 137.697 23.0827H137.692Z" fill="#0A3C87"/>
<path d="M160.789 23.0827C160.902 22.9691 163.85 22.9646 163.963 23.0827C164.131 23.2507 163.791 25.1898 163.959 25.3579C164.149 25.5531 169.891 24.7902 167.586 27.1698C167.405 27.356 163.963 26.9927 163.963 27.1698V36.9336C163.963 37.9827 166.549 37.9963 166.644 38.1053C169.14 41.0344 160.793 39.9945 160.793 36.9336C160.793 35.0672 160.3 23.5686 160.793 23.0827H160.789Z" fill="#0A3C87"/>
<path d="M92.4053 20.812H89.2352V39.8854H92.4053V20.812Z" fill="#0A3C87"/>
<path d="M173.016 25.3533H169.846V39.8854H173.016V25.3533Z" fill="#0A3C87"/>
<path d="M173.021 20.8074H169.842V23.5413H173.021V20.8074Z" fill="#0A3C87"/>
</svg>
