<svg width="168" height="60" viewBox="0 0 168 60" fill="none" xmlns="http://www.w3.org/2000/svg">
<g clip-path="url(#clip0_2099_870)">
<path d="M52.3325 28.7019C52.1139 28.2684 51.5318 27.9146 51.0391 27.9146H50.0379C49.5462 27.9146 48.971 28.2725 48.7582 28.709L40.8206 45.0405C40.6001 45.4726 40.8398 45.7819 41.3324 45.7819H43.1668C43.8909 45.7819 44.2228 45.4577 44.4187 45.0602C44.6155 44.6628 45.0529 43.799 45.1364 43.6228C45.2496 43.3845 45.5984 43.2383 46.0901 43.2388L54.6308 43.2433C55.123 43.2442 55.4394 43.3364 55.585 43.6228C55.68 43.8094 56.1164 44.5863 56.331 45.0103C56.5474 45.4343 56.9108 45.7819 57.6162 45.7819H60.2779C60.77 45.7819 60.9855 45.4141 60.8084 45.0724C60.6303 44.7298 52.3325 28.7019 52.3325 28.7019ZM47.3178 40.7164C46.8261 40.7164 46.5946 40.3558 46.8014 39.9174L49.9293 33.3182C50.1375 32.8785 50.4739 32.8816 50.6771 33.3209L53.7223 39.9201C53.9254 40.3603 53.6894 40.7209 53.1982 40.7209L47.3178 40.7164ZM113.667 28.8282C113.667 28.986 113.667 44.7127 113.667 45.0301C113.667 45.4762 114.069 45.7819 114.562 45.7819H116.731C117.222 45.7819 117.625 45.4726 117.625 44.9879V28.7954C117.625 28.3102 117.307 27.915 116.816 27.915H114.562C114.069 27.9146 113.667 28.2127 113.667 28.8282ZM77.3182 38.9763C77.0356 38.5797 77.1908 38.1418 77.6615 38.0033C77.6615 38.0033 79.5356 37.4507 80.4327 36.6585C81.3303 35.864 81.7814 34.717 81.7814 33.222C81.7814 32.2445 81.6079 31.4226 81.2623 30.754C80.9167 30.0872 80.4213 29.5413 79.7767 29.1236C79.132 28.7036 78.3605 28.3957 77.462 28.2028C76.5621 28.0108 75.3481 27.9546 75.3481 27.9546C74.856 27.9325 74.052 27.9146 73.5607 27.9146H64.553C64.0618 27.9146 63.6591 28.3098 63.6591 28.7949V44.9879C63.6591 45.473 64.0613 45.7819 64.553 45.7819H66.6847C67.1768 45.7819 67.579 45.4726 67.579 44.9879C67.579 44.9879 67.5804 38.5474 67.5845 38.5474C67.5882 38.5474 67.5904 38.5438 67.5904 38.5393C67.5904 38.5339 71.6314 38.5294 71.6314 38.5294C72.1226 38.5294 72.7572 38.8531 73.0417 39.2497L77.2364 45.0665C77.6263 45.5818 77.997 45.7819 78.4887 45.7819H81.2751C81.7672 45.7819 81.8444 45.3251 81.6741 45.0877C81.5056 44.8516 77.3182 38.9763 77.3182 38.9763ZM75.6221 35.6877C75.0701 35.8127 74.4487 35.8379 74.4487 35.8379C73.9575 35.859 73.1535 35.8761 72.6613 35.8761H68.4857C67.9936 35.8761 67.5914 35.4796 67.5914 34.9953V31.7144C67.5914 31.2297 67.9936 30.8335 68.4857 30.8335H72.6613C73.1535 30.8335 73.9575 30.8511 74.4487 30.8713C74.4487 30.8713 75.0701 30.8956 75.6221 31.021C76.174 31.1465 76.6119 31.3214 76.9324 31.5476C77.2542 31.7751 77.4839 32.0417 77.6227 32.3483C77.7596 32.655 77.8295 32.9891 77.8295 33.3537C77.8295 33.7166 77.7596 34.0524 77.6227 34.3586C77.4839 34.6653 77.2542 34.9319 76.9324 35.1594C76.6119 35.3869 76.174 35.5641 75.6221 35.6877ZM140.298 27.9146C139.807 27.9146 139.409 28.2338 139.409 28.7005C139.409 28.9244 139.414 39.0582 139.414 39.0582C139.414 39.5437 139.136 39.6539 138.794 39.305L128.264 28.5476C127.922 28.1987 127.421 27.9146 126.747 27.9146H124.767C124.144 27.9146 123.872 28.2419 123.872 28.5733C123.872 28.9033 123.872 44.8044 123.872 45.1362C123.872 45.4667 124.191 45.7819 124.684 45.7819H126.668C127.158 45.7819 127.503 45.5184 127.503 45.0724C127.503 44.8485 127.513 34.1608 127.513 34.1608C127.513 33.6765 127.791 33.5659 128.131 33.9157L139.112 45.1578C139.461 45.5018 139.884 45.7819 140.638 45.7819H142.128C142.621 45.7819 143.023 45.3858 143.023 44.9011V28.7954C143.023 28.3102 142.621 27.915 142.128 27.915L140.298 27.9146ZM97.363 38.0141C97.1242 38.4372 96.7311 38.4359 96.4955 38.0119L91.3479 28.7019C91.1292 28.2698 90.6805 27.9146 90.055 27.9146H87.2632C86.771 27.9146 86.3679 28.3098 86.3679 28.7949V44.9672C86.3679 45.451 86.6911 45.7819 87.2632 45.7819H88.9985C89.4911 45.7819 89.8459 45.4762 89.8459 45.009C89.8459 44.7851 89.8532 33.2467 89.8719 33.2467C89.8911 33.2467 96.2969 45.0058 96.2969 45.0058C96.5289 45.4325 97.0982 45.4343 97.3347 45.0094C97.3347 45.0094 103.793 33.2804 103.812 33.2804C103.832 33.2804 103.825 44.6722 103.825 45.009C103.825 45.4766 104.204 45.7819 104.697 45.7819H106.696C107.188 45.7819 107.59 45.5404 107.59 44.9011V28.7954C107.59 28.3102 107.188 27.915 106.696 27.915H104.019C103.336 27.915 102.926 28.2581 102.681 28.6794L97.363 38.0141Z" fill="#0A3C87"/>
<path d="M18 36.8321C18 45.5572 27.0616 45.9996 28.8787 45.9996C34.8919 45.9996 37.433 44.3994 37.5385 44.3301C37.9147 44.1206 38.3726 43.6979 38.3726 42.9061V36.8838C38.3726 36.329 37.9138 35.8771 37.35 35.8771H29.7954C29.2307 35.8771 28.86 36.329 28.86 36.8838V37.5075C28.86 38.0632 29.2307 38.5164 29.7954 38.5164H34.1651C34.5869 38.5164 34.9298 38.8536 34.9298 39.2691C34.9298 39.2691 34.9257 41.9089 34.9257 42.0761C34.0623 42.4232 30.1305 43.5545 26.9712 42.8126C22.3884 41.7331 22.0313 38.0097 22.0313 36.8942C22.0313 35.958 22.3162 31.2684 27.9446 30.794C32.5005 30.4101 35.5005 32.2216 35.5301 32.2392C36.0657 32.5125 36.6199 32.3178 36.9185 31.7594C36.9199 31.7549 37.4869 30.625 37.4869 30.625C37.723 30.1601 37.6435 29.6781 37.0674 29.2932C37.029 29.2716 33.8354 27.5662 28.8796 27.5662C18.305 27.5666 18 35.8838 18 36.8321Z" fill="#0A3C87"/>
<path d="M145.864 43.5585H145.086V43.282H146.981V43.5585H146.199V45.8017H145.864V43.5585Z" fill="#0A3C87"/>
<path d="M149.613 44.6946C149.594 44.343 149.571 43.9168 149.571 43.6065H149.564C149.473 43.8979 149.37 44.2158 149.241 44.5638L148.789 45.7859H148.539L148.121 44.5863C148 44.2275 147.901 43.9055 147.829 43.6065H147.821C147.813 43.9204 147.794 44.3394 147.772 44.7207L147.704 45.8007H147.389L147.567 43.281H147.989L148.425 44.4999C148.531 44.8102 148.615 45.0872 148.683 45.3484H148.691C148.759 45.0944 148.851 44.8178 148.965 44.4999L149.42 43.281H149.842L150.002 45.8007H149.675L149.613 44.6946Z" fill="#0A3C87"/>
<path d="M139.297 23.4493L127.43 23.4489C126.995 23.4489 126.621 23.2357 126.404 22.8648C126.187 22.4939 126.187 22.0694 126.405 21.6985L132.338 11.5827C132.556 11.2122 132.929 11 133.364 11C133.798 11 134.172 11.2122 134.389 11.5827L140.322 21.6989C140.54 22.0699 140.54 22.4948 140.323 22.8657C140.105 23.2362 139.732 23.4493 139.297 23.4493Z" fill="#0A3C87"/>
</g>
<defs>
<clipPath id="clip0_2099_870">
<rect width="132" height="35" fill="white" transform="translate(18 11)"/>
</clipPath>
</defs>
</svg>
