<svg width="70" height="70" viewBox="0 0 70 70" fill="none" xmlns="http://www.w3.org/2000/svg">
<path d="M10.1665 18.7334C8.58264 18.7334 7.2998 20.0162 7.2998 21.6001V41.6667C7.2998 43.2506 8.58264 44.5334 10.1665 44.5334H21.2748L20.5581 47.4001H18.7665C18.5765 47.3974 18.388 47.4325 18.2117 47.5033C18.0355 47.5741 17.875 47.6793 17.7398 47.8126C17.6045 47.946 17.4971 48.1049 17.4238 48.2802C17.3505 48.4554 17.3127 48.6434 17.3127 48.8334C17.3127 49.0234 17.3505 49.2114 17.4238 49.3866C17.4971 49.5619 17.6045 49.7208 17.7398 49.8542C17.875 49.9875 18.0355 50.0927 18.2117 50.1635C18.388 50.2343 18.5765 50.2694 18.7665 50.2667H30.2331C30.4231 50.2694 30.6116 50.2343 30.7879 50.1635C30.9642 50.0927 31.1246 49.9875 31.2598 49.8542C31.3951 49.7208 31.5025 49.5619 31.5758 49.3866C31.6491 49.2114 31.6869 49.0234 31.6869 48.8334C31.6869 48.6434 31.6491 48.4554 31.5758 48.2802C31.5025 48.1049 31.3951 47.946 31.2598 47.8126C31.1246 47.6793 30.9642 47.5741 30.7879 47.5033C30.6116 47.4325 30.4231 47.3974 30.2331 47.4001H28.4415L27.7248 44.5334H38.8331C40.417 44.5334 41.6998 43.2506 41.6998 41.6667V21.6001C41.6998 20.0162 40.417 18.7334 38.8331 18.7334H10.1665ZM10.1665 21.6001H38.8331V38.8001H10.1665V21.6001ZM24.4998 40.2334C25.291 40.2334 25.9331 40.8755 25.9331 41.6667C25.9331 42.4579 25.291 43.1001 24.4998 43.1001C23.7086 43.1001 23.0665 42.4579 23.0665 41.6667C23.0665 40.8755 23.7086 40.2334 24.4998 40.2334Z" fill="url(#paint0_linear_81_276)"/>
<path d="M64.7979 47.2333C64.9642 46.9481 65.0667 46.6204 65.0667 46.2666V31.7666C65.0667 30.7004 64.1996 29.8333 63.1333 29.8333H41.8667C40.8004 29.8333 39.9333 30.7004 39.9333 31.7666V46.2666C39.9333 46.6204 40.0358 46.9481 40.2021 47.2333H38V48.1999C38 49.2681 38.8652 50.1333 39.9333 50.1333H65.0667C66.1348 50.1333 67 49.2681 67 48.1999V47.2333H64.7979ZM55.4 46.2666C55.4 46.8002 54.9669 47.2333 54.4333 47.2333H51.5333C50.9997 47.2333 50.5667 46.8002 50.5667 46.2666H41.8667V31.7666H63.1333L63.1343 46.2666H55.4Z" fill="url(#paint1_linear_81_276)"/>
<defs>
<linearGradient id="paint0_linear_81_276" x1="37.1211" y1="44.0845" x2="21.4565" y2="18.5286" gradientUnits="userSpaceOnUse">
<stop offset="0.29" stop-color="#3A77CE"/>
<stop offset="1" stop-color="#0EDDC9"/>
</linearGradient>
<linearGradient id="paint1_linear_81_276" x1="63.1401" y1="46.1533" x2="54.4501" y2="27.5877" gradientUnits="userSpaceOnUse">
<stop offset="0.29" stop-color="#3A77CE"/>
<stop offset="1" stop-color="#0EDDC9"/>
</linearGradient>
</defs>
</svg>
