<svg width="70" height="70" viewBox="0 0 70 70" fill="none" xmlns="http://www.w3.org/2000/svg">
<path d="M42.6369 13.5182C42.2386 13.5301 41.8605 13.6966 41.5828 13.9824L33.4669 22.0983L28.4177 17.0491C28.2748 16.9022 28.1039 16.7855 27.9151 16.7057C27.7264 16.626 27.5235 16.5849 27.3186 16.5849C27.0136 16.585 26.7155 16.676 26.4625 16.8464C26.2094 17.0168 26.013 17.2587 25.8982 17.5414C25.7834 17.824 25.7555 18.1344 25.8181 18.4329C25.8807 18.7315 26.0309 19.0046 26.2494 19.2173L29.7653 22.7332H22.7336C18.5 22.7332 15.0669 26.1664 15.0669 30.3999V44.1999C15.0669 47.3411 16.9622 50.0352 19.6669 51.2197V51.8666C19.664 52.0697 19.7016 52.2715 19.7773 52.46C19.8531 52.6486 19.9656 52.8202 20.1082 52.9649C20.2509 53.1096 20.4209 53.2245 20.6084 53.3029C20.7958 53.3813 20.997 53.4217 21.2002 53.4217C21.4034 53.4217 21.6046 53.3813 21.7921 53.3029C21.9795 53.2245 22.1495 53.1096 22.2922 52.9649C22.4349 52.8202 22.5474 52.6486 22.6231 52.46C22.6989 52.2715 22.7364 52.0697 22.7336 51.8666H47.2669C47.264 52.0697 47.3016 52.2715 47.3773 52.46C47.4531 52.6486 47.5656 52.8202 47.7082 52.9649C47.8509 53.1096 48.0209 53.2245 48.2084 53.3029C48.3958 53.3813 48.597 53.4217 48.8002 53.4217C49.0034 53.4217 49.2046 53.3813 49.3921 53.3029C49.5795 53.2245 49.7495 53.1096 49.8922 52.9649C50.0349 52.8202 50.1474 52.6486 50.2231 52.46C50.2989 52.2715 50.3364 52.0697 50.3336 51.8666V51.2197C53.0382 50.0352 54.9336 47.3411 54.9336 44.1999V30.3999C54.9336 26.1664 51.5004 22.7332 47.2669 22.7332H37.1685L43.751 16.1507C43.9726 15.9353 44.1239 15.658 44.1852 15.3551C44.2465 15.0523 44.2148 14.738 44.0944 14.4534C43.9739 14.1688 43.7704 13.9273 43.5103 13.7604C43.2502 13.5935 42.9458 13.5091 42.6369 13.5182ZM31.9336 25.7999C36.4876 25.7999 40.4665 26.484 42.607 26.9379C43.6819 27.1664 44.5456 28.0138 44.8231 29.1331C45.2356 30.7998 45.7336 33.5816 45.7336 37.2999C45.7336 41.0182 45.2356 43.7985 44.8231 45.4637C44.5456 46.583 43.6819 47.4334 42.607 47.6619C40.4665 48.1173 36.4876 48.7999 31.9336 48.7999C27.3796 48.7999 23.4007 48.1157 21.2601 47.6619C20.1853 47.4334 19.3215 46.586 19.044 45.4667C18.6315 43.7999 18.1336 41.0182 18.1336 37.2999C18.1336 33.5816 18.6315 30.8013 19.044 29.1361C19.3215 28.0167 20.1853 27.1664 21.2601 26.9379C23.4007 26.4825 27.3796 25.7999 31.9336 25.7999ZM50.3336 28.8666C51.18 28.8666 51.8669 29.5535 51.8669 30.3999C51.8669 31.2463 51.18 31.9332 50.3336 31.9332C49.4872 31.9332 48.8002 31.2463 48.8002 30.3999C48.8002 29.5535 49.4872 28.8666 50.3336 28.8666ZM50.3336 34.9999C51.18 34.9999 51.8669 35.6868 51.8669 36.5332C51.8669 37.3796 51.18 38.0666 50.3336 38.0666C49.4872 38.0666 48.8002 37.3796 48.8002 36.5332C48.8002 35.6868 49.4872 34.9999 50.3336 34.9999ZM50.3336 44.1999C51.18 44.1999 51.8669 44.8868 51.8669 45.7332C51.8669 46.5796 51.18 47.2666 50.3336 47.2666C49.4872 47.2666 48.8002 46.5796 48.8002 45.7332C48.8002 44.8868 49.4872 44.1999 50.3336 44.1999Z" fill="url(#paint0_linear_81_297)"/>
<defs>
<linearGradient id="paint0_linear_81_297" x1="49.6273" y1="45.5982" x2="29.0622" y2="14.8721" gradientUnits="userSpaceOnUse">
<stop offset="0.29" stop-color="#3A77CE"/>
<stop offset="1" stop-color="#0EDDC9"/>
</linearGradient>
</defs>
</svg>
