<svg width="70" height="70" viewBox="0 0 70 70" fill="none" xmlns="http://www.w3.org/2000/svg">
<path d="M24.1667 16.6667C20.915 16.6667 17.2283 18.3647 15 20.918V30.752C17.2283 33.3037 20.915 35.0001 24.1667 35.0001C25.035 35.0001 25.8717 34.8703 26.6667 34.6453V48.3334H33.3333V25.8334C33.3333 20.7717 29.2283 16.6667 24.1667 16.6667ZM45.8333 16.6667C40.7717 16.6667 36.6667 20.7717 36.6667 25.8334V48.3334H43.3333V34.6453C44.1283 34.8703 44.965 35.0001 45.8333 35.0001C49.085 35.0001 52.7717 33.3021 55 30.7488V20.918C52.7717 18.3647 49.085 16.6667 45.8333 16.6667ZM20 23.3334C20.92 23.3334 21.6667 24.0801 21.6667 25.0001C21.6667 25.9201 20.92 26.6667 20 26.6667C19.08 26.6667 18.3333 25.9201 18.3333 25.0001C18.3333 24.0801 19.08 23.3334 20 23.3334ZM50 23.3334C50.92 23.3334 51.6667 24.0801 51.6667 25.0001C51.6667 25.9201 50.92 26.6667 50 26.6667C49.08 26.6667 48.3333 25.9201 48.3333 25.0001C48.3333 24.0801 49.08 23.3334 50 23.3334ZM30.8333 25.0001C31.2933 25.0001 31.6667 25.3734 31.6667 25.8334C31.6667 26.2934 31.2933 26.6667 30.8333 26.6667C30.3733 26.6667 30 26.2934 30 25.8334C30 25.3734 30.3733 25.0001 30.8333 25.0001ZM39.1667 25.0001C39.6267 25.0001 40 25.3734 40 25.8334C40 26.2934 39.6267 26.6667 39.1667 26.6667C38.7067 26.6667 38.3333 26.2934 38.3333 25.8334C38.3333 25.3734 38.7067 25.0001 39.1667 25.0001ZM26.6667 51.6667V53.3334C26.6667 54.2534 27.4133 55.0001 28.3333 55.0001H31.6667C32.5867 55.0001 33.3333 54.2534 33.3333 53.3334V51.6667H26.6667ZM36.6667 51.6667V53.3334C36.6667 54.2534 37.4133 55.0001 38.3333 55.0001H41.6667C42.5867 55.0001 43.3333 54.2534 43.3333 53.3334V51.6667H36.6667Z" fill="url(#paint0_linear_81_264)"/>
<defs>
<linearGradient id="paint0_linear_81_264" x1="49.676" y1="47.4845" x2="30.2609" y2="17.187" gradientUnits="userSpaceOnUse">
<stop offset="0.29" stop-color="#3A77CE"/>
<stop offset="1" stop-color="#0EDDC9"/>
</linearGradient>
</defs>
</svg>
