<svg width="70" height="70" viewBox="0 0 70 70" fill="none" xmlns="http://www.w3.org/2000/svg">
<path d="M36.6668 14.9999C36.446 14.9968 36.2267 15.0376 36.0218 15.12C35.8168 15.2023 35.6303 15.3246 35.473 15.4797C35.3157 15.6347 35.1908 15.8195 35.1056 16.0233C35.0203 16.227 34.9764 16.4457 34.9764 16.6666C34.9764 16.8875 35.0203 17.1061 35.1056 17.3099C35.1908 17.5137 35.3157 17.6984 35.473 17.8535C35.6303 18.0086 35.8168 18.1309 36.0218 18.2132C36.2267 18.2956 36.446 18.3364 36.6668 18.3333H40.4429L45.98 35.97L39.092 46.6666H23.021C22.3254 44.7377 20.4888 43.3333 18.3335 43.3333C15.5918 43.3333 13.3335 45.5916 13.3335 48.3333C13.3335 51.0749 15.5918 53.3333 18.3335 53.3333C20.4888 53.3333 22.3254 51.9288 23.021 49.9999H40.0002C40.2788 49.9996 40.553 49.9294 40.7975 49.7957C41.042 49.6621 41.2491 49.4693 41.3999 49.2349L47.2788 40.1073L48.6265 44.4042C47.4463 45.3225 46.6668 46.7375 46.6668 48.3333C46.6668 51.0749 48.9251 53.3333 51.6668 53.3333C54.4085 53.3333 56.6668 51.0749 56.6668 48.3333C56.6668 45.6328 54.473 43.4127 51.7873 43.3463L43.2586 16.1685C43.1525 15.8296 42.9408 15.5334 42.6544 15.3231C42.3681 15.1129 42.0221 14.9997 41.6668 14.9999H36.6668ZM18.3335 46.6666C19.2399 46.6666 19.9309 47.3479 19.9806 48.2389C19.9769 48.3028 19.9769 48.3669 19.9806 48.4309C19.9293 49.3202 19.2388 49.9999 18.3335 49.9999C17.3933 49.9999 16.6668 49.2735 16.6668 48.3333C16.6668 47.393 17.3933 46.6666 18.3335 46.6666ZM51.6668 46.6666C52.607 46.6666 53.3335 47.393 53.3335 48.3333C53.3335 49.2735 52.607 49.9999 51.6668 49.9999C50.7266 49.9999 50.0002 49.2735 50.0002 48.3333C50.0002 47.393 50.7266 46.6666 51.6668 46.6666Z" fill="url(#paint0_linear_81_289)"/>
<defs>
<linearGradient id="paint0_linear_81_289" x1="50.8991" y1="45.8177" x2="32.1709" y2="14.1567" gradientUnits="userSpaceOnUse">
<stop offset="0.29" stop-color="#3A77CE"/>
<stop offset="1" stop-color="#0EDDC9"/>
</linearGradient>
</defs>
</svg>
