<svg width="16" height="16" viewBox="0 0 16 16" fill="none" xmlns="http://www.w3.org/2000/svg">
<path d="M13.3281 11.2074C13.1874 11.204 13.0537 11.1453 12.9562 11.0438L7.99996 6.08758L3.04371 11.0438C2.99401 11.0949 2.93457 11.1355 2.86891 11.1633C2.80325 11.191 2.7327 11.2053 2.66142 11.2053C2.55532 11.2053 2.45164 11.1736 2.36364 11.1143C2.27563 11.0551 2.2073 10.9709 2.16738 10.8726C2.12745 10.7743 2.11775 10.6663 2.13951 10.5625C2.16128 10.4587 2.21351 10.3637 2.28955 10.2897L7.62288 4.95633C7.7229 4.85635 7.85854 4.80018 7.99996 4.80018C8.14139 4.80018 8.27702 4.85635 8.37705 4.95633L13.7104 10.2897C13.7878 10.3641 13.841 10.4603 13.8629 10.5655C13.8848 10.6707 13.8744 10.78 13.833 10.8792C13.7917 10.9784 13.7214 11.0628 13.6313 11.1214C13.5412 11.1799 13.4355 11.2099 13.3281 11.2074Z" fill="#0A3C87"/>
</svg>
