<svg width="16" height="16" viewBox="0 0 16 16" fill="none" xmlns="http://www.w3.org/2000/svg">
<path d="M4.25523 3.18967C4.04312 3.18994 3.83591 3.25342 3.66006 3.37202C3.48421 3.49062 3.34771 3.65895 3.26799 3.85551C3.18827 4.05207 3.16896 4.26792 3.21251 4.47551C3.25607 4.6831 3.36052 4.87299 3.51252 5.02092L6.49169 8.00009L3.51252 10.9793C3.41015 11.0775 3.32842 11.1953 3.27212 11.3255C3.21581 11.4558 3.18607 11.596 3.18463 11.7379C3.18318 11.8798 3.21007 12.0206 3.26371 12.152C3.31735 12.2834 3.39667 12.4027 3.49702 12.5031C3.59737 12.6034 3.71674 12.6828 3.84813 12.7364C3.97951 12.79 4.12029 12.8169 4.2622 12.8155C4.40411 12.814 4.5443 12.7843 4.67457 12.728C4.80484 12.6717 4.92257 12.59 5.02086 12.4876L8.00002 9.50842L10.9792 12.4876C11.0775 12.59 11.1952 12.6717 11.3255 12.728C11.4557 12.7843 11.5959 12.814 11.7379 12.8155C11.8798 12.8169 12.0205 12.7901 12.1519 12.7364C12.2833 12.6828 12.4027 12.6035 12.503 12.5031C12.6034 12.4027 12.6827 12.2834 12.7363 12.152C12.79 12.0206 12.8169 11.8798 12.8154 11.7379C12.814 11.596 12.7842 11.4558 12.7279 11.3255C12.6716 11.1953 12.5899 11.0775 12.4875 10.9793L9.50836 8.00009L12.4875 5.02092C12.6417 4.8711 12.7469 4.6782 12.7896 4.46751C12.8322 4.25682 12.8102 4.03817 12.7264 3.84022C12.6426 3.64226 12.501 3.47423 12.3201 3.35814C12.1392 3.24206 11.9274 3.18334 11.7125 3.18967C11.4354 3.19793 11.1724 3.31375 10.9792 3.51259L8.00002 6.49176L5.02086 3.51259C4.92133 3.41028 4.80229 3.32899 4.67078 3.27352C4.53927 3.21805 4.39796 3.18954 4.25523 3.18967Z" fill="black"/>
</svg>
