<svg width="35" height="35" viewBox="0 0 35 35" fill="none" xmlns="http://www.w3.org/2000/svg">
<path d="M11.1357 4.6665C6.91824 4.6665 3.5 8.08475 3.5 12.3022C3.5 19.6434 12.0155 26.6579 15.9938 29.7817C15.9976 29.7848 16.0014 29.7878 16.0052 29.7909C16.0325 29.8123 16.0695 29.8427 16.0964 29.8638L16.0986 29.8615C16.5023 30.1665 16.9941 30.332 17.5 30.3332C18.0067 30.3325 18.4994 30.1669 18.9036 29.8615V29.8638C18.9115 29.8576 18.9231 29.8494 18.931 29.8433C18.937 29.8386 18.9455 29.832 18.9515 29.8273C18.9591 29.8205 18.9667 29.8137 18.9743 29.8068C22.9403 26.6942 31.5 19.6609 31.5 12.3022C31.5 8.08475 28.0818 4.6665 23.8643 4.6665C19.8334 4.6665 17.5 8.1665 17.5 8.1665C17.5 8.1665 15.1666 4.6665 11.1357 4.6665Z" fill="white"/>
</svg>
