<svg width="24" height="24" viewBox="0 0 24 24" fill="none" xmlns="http://www.w3.org/2000/svg">
<path d="M7.99994 0L5.59994 2.4H10.3999L7.99994 0ZM13.5999 0L15.9999 2.4L18.3999 0H13.5999ZM3.19994 4C3.09393 3.9985 2.98868 4.01809 2.89031 4.05762C2.79193 4.09715 2.7024 4.15584 2.6269 4.23027C2.55141 4.30471 2.49146 4.39341 2.45054 4.49121C2.40962 4.58902 2.38855 4.69398 2.38855 4.8C2.38855 4.90602 2.40962 5.01098 2.45054 5.10879C2.49146 5.20659 2.55141 5.29529 2.6269 5.36973C2.7024 5.44416 2.79193 5.50285 2.89031 5.54238C2.98868 5.58191 3.09393 5.6015 3.19994 5.6H3.84057L9.59994 12.8H14.3999L20.1593 5.6H20.7999C20.906 5.6015 21.0112 5.58191 21.1096 5.54238C21.208 5.50285 21.2975 5.44416 21.373 5.36973C21.4485 5.29529 21.5084 5.20659 21.5493 5.10879C21.5903 5.01098 21.6113 4.90602 21.6113 4.8C21.6113 4.69398 21.5903 4.58902 21.5493 4.49121C21.5084 4.39341 21.4485 4.30471 21.373 4.23027C21.2975 4.15584 21.208 4.09715 21.1096 4.05762C21.0112 4.01809 20.906 3.9985 20.7999 4H3.19994ZM9.59994 14.4V21.6L14.3999 20V14.4H9.59994Z" fill="#0EDDC9"/>
</svg>
