<svg width="17" height="17" viewBox="0 0 17 17" fill="none" xmlns="http://www.w3.org/2000/svg">
<path d="M8.5 0C13.1944 0 17 3.80558 17 8.5C17 13.1944 13.1944 17 8.5 17C3.80558 17 0 13.1944 0 8.5C0 3.80558 3.80558 0 8.5 0ZM8.5 1C4.35786 1 1 4.35786 1 8.5C1 12.6421 4.35786 16 8.5 16C12.6421 16 16 12.6421 16 8.5C16 4.35786 12.6421 1 8.5 1ZM12.2021 5C12.6057 5 12.9996 5.2246 13 5.56543C13 5.73597 12.872 5.91521 12.7637 6.0625L8.26367 11.6436C8.0668 11.876 7.79073 12 7.46582 12C7.141 12 6.87504 11.8993 6.62891 11.6436L4.22656 9.31738C4.08881 9.17018 4 8.99964 4 8.83691C4.00021 8.48832 4.33468 8.21699 4.76758 8.2168C5.03344 8.2168 5.25098 8.28709 5.4873 8.53516L7.42676 10.5117L11.5127 5.34863C11.6998 5.11613 11.9463 5.00006 12.2021 5Z" fill="white" fill-opacity="0.85"/>
</svg>
