<svg width="25" height="25" viewBox="0 0 25 25" fill="none" xmlns="http://www.w3.org/2000/svg">
<path d="M0.813088 11.6169C0.869734 11.5891 0.926407 11.5628 0.981637 11.5378C1.9418 11.1021 2.9147 10.6942 3.88619 10.2863C3.93859 10.2863 4.02637 10.2266 4.07593 10.2072C4.15099 10.1753 4.22606 10.1447 4.30112 10.1128C4.44557 10.0518 4.59002 9.99212 4.73305 9.93107C5.02195 9.81035 5.30941 9.68964 5.59831 9.56893C6.17469 9.32751 6.75106 9.08609 7.32744 8.84327C8.4802 8.36043 9.6344 7.8762 10.7872 7.39335C11.9399 6.9105 13.0941 6.42625 14.2468 5.94341C15.3996 5.46056 16.5538 4.97633 17.7065 4.49348C18.8593 4.01063 20.0135 3.52639 21.1662 3.04354C21.4225 2.93531 21.7001 2.77438 21.9748 2.7272C22.2057 2.68696 22.4308 2.60926 22.6631 2.56625C23.1035 2.48439 23.5893 2.45108 24.0113 2.63007C24.1571 2.6925 24.2917 2.77992 24.4036 2.88953C24.9389 3.40845 24.8638 4.26038 24.7505 4.9902C23.9617 10.0768 23.1729 15.1647 22.3827 20.2513C22.2751 20.9492 22.1278 21.7151 21.5656 22.1563C21.0897 22.5295 20.4128 22.5712 19.8251 22.413C19.2374 22.2534 18.7191 21.919 18.2107 21.5902C16.102 20.2221 13.9919 18.8541 11.8833 17.486C11.3819 17.1613 10.824 16.7367 10.8296 16.1471C10.8325 15.7919 11.0491 15.4755 11.2701 15.1938C13.1026 12.8518 15.7465 11.2422 17.7136 9.00838C17.9912 8.69342 18.2093 8.12455 17.8283 7.94279C17.6017 7.83457 17.3411 7.98165 17.1344 8.12178C14.5343 9.89084 11.9357 11.6613 9.33559 13.4303C8.4873 14.0075 7.59795 14.6014 6.57548 14.7429C5.66064 14.8706 4.74014 14.6208 3.85504 14.3655C3.11297 14.1518 2.37229 13.9326 1.63447 13.7065C1.24219 13.5871 0.837166 13.4581 0.534107 13.1875C0.231048 12.917 0.0568838 12.4619 0.239569 12.1011C0.354278 11.8749 0.57662 11.732 0.810287 11.6155L0.813088 11.6169Z" fill="#0EDDC9"/>
</svg>
