<svg width="16" height="16" viewBox="0 0 16 16" fill="none" xmlns="http://www.w3.org/2000/svg">
<path d="M13.8669 13.3329C13.8669 13.3201 13.8552 12.0331 12.8445 10.7254C11.5368 9.03314 9.13093 8.09821 5.86693 8.00701V10.1329C5.86693 10.3483 5.73679 10.5435 5.53786 10.6257C5.33839 10.7083 5.10906 10.6625 4.95653 10.5099L1.22319 6.77661C1.01466 6.56808 1.01466 6.23101 1.22319 6.02248L4.95653 2.28914C5.10906 2.13661 5.33839 2.09021 5.53786 2.17341C5.73679 2.25554 5.86693 2.45074 5.86693 2.66621V4.80808C14.6749 5.09448 14.9336 12.4769 14.9336 13.3329C14.9336 13.6278 14.6947 13.8662 14.4003 13.8662C14.1059 13.8662 13.8669 13.6278 13.8669 13.3329Z" fill="#3C78CD"/>
</svg>
