<svg width="26" height="26" viewBox="0 0 26 26" fill="none" xmlns="http://www.w3.org/2000/svg">
<path d="M19.9334 2.6001C19.014 2.6001 18.1323 2.96533 17.4821 3.61546C16.832 4.26559 16.4668 5.14735 16.4668 6.06676C16.4683 6.31044 16.4955 6.55328 16.548 6.79124L8.67692 10.7268C8.35228 10.353 7.95137 10.0532 7.50114 9.84731C7.05091 9.64147 6.56182 9.53444 6.06676 9.53343C5.14735 9.53343 4.26559 9.89867 3.61546 10.5488C2.96533 11.1989 2.6001 12.0807 2.6001 13.0001C2.6001 13.9195 2.96533 14.8013 3.61546 15.4514C4.26559 16.1015 5.14735 16.4668 6.06676 16.4668C6.56197 16.4662 7.05131 16.3596 7.50184 16.154C7.95237 15.9484 8.35363 15.6488 8.67861 15.2751L16.5446 19.209C16.4933 19.447 16.4672 19.6899 16.4668 19.9334C16.4668 20.8528 16.832 21.7346 17.4821 22.3847C18.1323 23.0349 19.014 23.4001 19.9334 23.4001C20.8528 23.4001 21.7346 23.0349 22.3847 22.3847C23.0349 21.7346 23.4001 20.8528 23.4001 19.9334C23.4001 19.014 23.0349 18.1323 22.3847 17.4821C21.7346 16.832 20.8528 16.4668 19.9334 16.4668C19.4382 16.4673 18.9489 16.574 18.4984 16.7795C18.0478 16.9851 17.6466 17.2848 17.3216 17.6584L9.45557 13.7246C9.5069 13.4865 9.533 13.2437 9.53343 13.0001C9.53177 12.757 9.50453 12.5147 9.45218 12.2773L17.3233 8.34176C17.6481 8.7152 18.0491 9.01477 18.4993 9.22032C18.9495 9.42587 19.4385 9.53263 19.9334 9.53343C20.8528 9.53343 21.7346 9.16819 22.3847 8.51807C23.0349 7.86794 23.4001 6.98618 23.4001 6.06676C23.4001 5.14735 23.0349 4.26559 22.3847 3.61546C21.7346 2.96533 20.8528 2.6001 19.9334 2.6001Z" fill="black" fill-opacity="0.25"/>
</svg>
