<svg width="35" height="35" viewBox="0 0 35 35" fill="none" xmlns="http://www.w3.org/2000/svg">
<path d="M26.8337 6.5C26.1897 6.5 25.667 6.948 25.667 7.5V30.5H30.3337V7.5C30.3337 6.948 29.811 6.5 29.167 6.5H26.8337ZM19.8337 9.5C19.1897 9.5 18.667 9.948 18.667 10.5V30.5H23.3337V10.5C23.3337 9.948 22.811 9.5 22.167 9.5H19.8337ZM12.8337 12.5C12.1897 12.5 11.667 12.948 11.667 13.5V30.5H16.3337V13.5C16.3337 12.948 15.811 12.5 15.167 12.5H12.8337ZM5.83366 15.5C5.18966 15.5 4.66699 15.948 4.66699 16.5V30.5H9.33366V16.5C9.33366 15.948 8.81099 15.5 8.16699 15.5H5.83366Z" fill="white"/>
</svg>
