<svg width="36" height="36" viewBox="0 0 36 36" fill="none" xmlns="http://www.w3.org/2000/svg">
<path d="M3.73562 18.4844C3.79992 18.4525 3.86426 18.4222 3.92695 18.3935C5.01686 17.8924 6.12124 17.4233 7.22401 16.9542C7.28349 16.9542 7.38313 16.8856 7.43939 16.8633C7.52459 16.8266 7.60981 16.7915 7.69501 16.7548C7.85897 16.6846 8.02295 16.6159 8.18531 16.5457C8.51325 16.4069 8.83956 16.2681 9.1675 16.1293C9.82176 15.8516 10.476 15.574 11.1303 15.2948C12.4388 14.7395 13.749 14.1826 15.0575 13.6274C16.3661 13.0721 17.6762 12.5152 18.9847 11.9599C20.2933 11.4046 21.6034 10.8478 22.9119 10.2925C24.2205 9.73723 25.5306 9.18034 26.8392 8.62507C27.1301 8.50061 27.4452 8.31553 27.7571 8.26128C28.0191 8.21501 28.2747 8.12565 28.5383 8.07618C29.0383 7.98204 29.5896 7.94374 30.0687 8.14958C30.2343 8.22138 30.387 8.3219 30.514 8.44796C31.1216 9.04472 31.0364 10.0244 30.9078 10.8637C30.0124 16.7133 29.117 22.5644 28.22 28.4139C28.0978 29.2165 27.9307 30.0973 27.2925 30.6047C26.7523 31.0339 25.9839 31.0818 25.3168 30.8999C24.6497 30.7164 24.0613 30.3319 23.4842 29.9537C21.0906 28.3804 18.6954 26.8072 16.3018 25.2339C15.7327 24.8605 15.0993 24.3722 15.1058 23.6941C15.109 23.2856 15.3549 22.9218 15.6057 22.5979C17.6858 19.9045 20.6871 18.0536 22.92 15.4846C23.2351 15.1224 23.4826 14.4682 23.0502 14.2592C22.793 14.1348 22.4972 14.3039 22.2625 14.4651C19.311 16.4995 16.3612 18.5355 13.4098 20.5699C12.4469 21.2337 11.4374 21.9166 10.2767 22.0793C9.23825 22.2261 8.19336 21.9389 7.18865 21.6453C6.3463 21.3996 5.50553 21.1475 4.668 20.8874C4.22271 20.7502 3.76296 20.6018 3.41894 20.2906C3.07493 19.9795 2.87723 19.4561 3.0846 19.0413C3.21481 18.7812 3.4672 18.6168 3.73244 18.4828L3.73562 18.4844Z" fill="white"/>
</svg>
