<svg width="25" height="25" viewBox="0 0 25 25" fill="none" xmlns="http://www.w3.org/2000/svg">
<path d="M10.8338 2.50008C10.7234 2.49858 10.6138 2.51903 10.5114 2.56023C10.409 2.60144 10.3158 2.66258 10.2372 2.74011C10.1586 2.81765 10.0962 2.91002 10.0536 3.01187C10.011 3.11372 9.98908 3.22301 9.98908 3.33341H5.00048C4.89005 3.33185 4.78041 3.35225 4.67794 3.39343C4.57547 3.43461 4.4822 3.49574 4.40356 3.57328C4.32492 3.65081 4.26247 3.74321 4.21985 3.84509C4.17722 3.94697 4.15527 4.05631 4.15527 4.16674C4.15527 4.27718 4.17722 4.38652 4.21985 4.4884C4.26247 4.59028 4.32492 4.68267 4.40356 4.76021C4.4822 4.83775 4.57547 4.89888 4.67794 4.94006C4.78041 4.98124 4.89005 5.00164 5.00048 5.00008H20.0005C20.1109 5.00164 20.2205 4.98124 20.323 4.94006C20.4255 4.89888 20.5188 4.83775 20.5974 4.76021C20.676 4.68267 20.7385 4.59028 20.7811 4.4884C20.8237 4.38652 20.8457 4.27718 20.8457 4.16674C20.8457 4.05631 20.8237 3.94697 20.7811 3.84509C20.7385 3.74321 20.676 3.65081 20.5974 3.57328C20.5188 3.49574 20.4255 3.43461 20.323 3.39343C20.2205 3.35225 20.1109 3.33185 20.0005 3.33341H15.0119C15.0119 3.22301 14.9899 3.11372 14.9473 3.01187C14.9047 2.91002 14.8423 2.81765 14.7638 2.74011C14.6852 2.66258 14.5919 2.60144 14.4895 2.56023C14.3871 2.51903 14.2775 2.49858 14.1671 2.50008H10.8338ZM5.00048 6.66674V20.0001C5.00048 20.9209 5.74631 21.6667 6.66714 21.6667H18.3338C19.2546 21.6667 20.0005 20.9209 20.0005 20.0001V6.66674H5.00048Z" fill="black" fill-opacity="0.2"/>
</svg>
